<svg width="32" height="23" viewBox="0 0 32 23" fill="none" xmlns="http://www.w3.org/2000/svg">
<path d="M8.12 23C6.62667 23 5.26667 22.6267 4.04 21.88C2.86667 21.08 1.93333 20.0133 1.24 18.68C0.546667 17.2933 0.2 15.72 0.2 13.96C0.2 12.5733 0.493334 11.2133 1.08 9.88C1.66667 8.54666 2.46667 7.29333 3.48 6.12C4.54667 4.94667 5.77333 3.90667 7.16 3C8.54667 2.09333 10.04 1.4 11.64 0.919996L14.68 4.6C12.6 5.56 10.8933 6.65333 9.56 7.88C8.22667 9.10666 7.56 10.1733 7.56 11.08C7.56 11.7733 7.85333 12.3867 8.44 12.92C9.02667 13.4533 9.56 13.9333 10.04 14.36C11.2133 15.32 11.9867 16.12 12.36 16.76C12.7867 17.4 13 18.0667 13 18.76C13 20.04 12.5467 21.08 11.64 21.88C10.7333 22.6267 9.56 23 8.12 23ZM24.68 23C23.1867 23 21.8267 22.6267 20.6 21.88C19.4267 21.08 18.4933 20.0133 17.8 18.68C17.1067 17.2933 16.76 15.72 16.76 13.96C16.76 12.5733 17.0533 11.2133 17.64 9.88C18.2267 8.54666 19.0267 7.29333 20.04 6.12C21.1067 4.94667 22.3333 3.90667 23.72 3C25.1067 2.09333 26.6 1.4 28.2 0.919996L31.24 4.6C29.16 5.56 27.4533 6.65333 26.12 7.88C24.7867 9.10666 24.12 10.1733 24.12 11.08C24.12 11.7733 24.4133 12.3867 25 12.92C25.5867 13.4533 26.12 13.9333 26.6 14.36C27.7733 15.32 28.5467 16.12 28.92 16.76C29.3467 17.4 29.56 18.0667 29.56 18.76C29.56 20.04 29.1067 21.08 28.2 21.88C27.2933 22.6267 26.12 23 24.68 23Z" fill="#0074BA"/>
</svg>
