<svg width="210" height="216" viewBox="0 0 210 216" fill="none" xmlns="http://www.w3.org/2000/svg">
<g clip-path="url(#clip0_7431_143)">
<path d="M30.4282 130.794C30.4282 130.794 20.0197 115.532 43.6546 105.519C62.3467 97.5999 51.8844 125.654 51.8844 125.654L30.4282 130.792V130.794Z" fill="#F7D07D"/>
<path d="M195.57 157.045C193.834 155.195 192.402 153.134 191.088 150.97C189.743 148.755 188.442 146.512 187.147 144.268C184.533 139.736 181.989 135.163 179.518 130.553C178.337 128.349 177.173 126.133 176.024 123.911C176.059 123.842 176.071 123.76 176.032 123.672C175.292 121.974 174.529 120.285 173.755 118.602C173.825 118.526 172.422 113.743 172.371 113.625C163.054 91.7563 144.714 83.7192 122.198 78.4672C121.512 78.3074 120.824 78.1536 120.136 78.0057C112.418 76.3526 104.562 75.4775 96.7261 74.5994C93.7499 74.2664 90.7707 73.9334 87.7975 73.5586C83.1726 74.1619 78.5672 74.9325 73.9214 75.3357C70.7182 75.6134 67.4941 75.7463 64.288 76.0166C64.2685 76.0405 64.2491 76.0629 64.2312 76.0868L24.7848 82.5066C24.7848 82.5066 12.4932 85.117 14.2121 94.2756C15.8338 102.917 26.5709 104.218 37.7574 102.447L58.1683 101.535C58.3579 103.318 58.6297 105.092 58.9717 106.845C59.7975 111.076 60.9802 115.233 62.266 119.344C63.3845 122.916 64.618 126.454 66.0337 129.92C68.8232 136.743 72.334 143.336 77.0709 149.018C79.4527 151.876 82.1407 154.467 85.1125 156.707C85.8069 157.231 86.5177 157.732 87.236 158.22C89.9195 160.936 92.7673 163.49 95.7614 165.86C99.7053 168.983 103.891 171.796 108.276 174.26C112.642 176.715 117.204 178.827 121.904 180.562C126.885 182.403 133.529 183.728 137.939 184.686C137.961 184.712 161.381 207.781 168.767 214.956C170.044 216.197 172.017 216.348 173.482 215.334C187.718 205.486 203.281 187.449 209.196 172.006C209.767 170.518 209.328 168.835 208.1 167.816C204.4 164.747 196.888 158.452 195.568 157.046L195.57 157.045Z" fill="#F7D07D"/>
<path d="M77.8773 159.661L8.71212 44.8628C6.59308 41.3445 6.72151 36.6196 9.00183 34.3079L41.5908 1.25298C43.8696 -1.05869 47.4357 -0.0805612 49.5547 3.43624L118.72 118.235C120.839 121.753 120.711 126.478 118.43 128.789L85.8412 161.844C83.5624 164.156 79.9963 163.178 77.8773 159.661Z" fill="#232B57"/>
<path d="M111.516 120.044L42.351 5.24603C41.8895 4.48145 41.3579 3.8438 40.7874 3.3271C41.8537 2.40422 43.58 0.104492 43.58 0.104492L36.3941 1.90993C36.3941 1.90993 36.4 1.91441 36.4015 1.91441C35.6743 2.08166 34.9859 2.455 34.387 3.06278L1.79805 36.1177C-0.480776 38.4294 -0.610696 43.1543 1.50834 46.6726L70.6735 161.471C72.7925 164.989 76.3586 165.966 78.6374 163.654L111.226 130.599C113.505 128.288 113.635 123.563 111.516 120.044Z" fill="#232B57"/>
<path d="M48.7424 6.32734L114.486 115.447C116.15 118.208 116.162 121.81 114.506 123.49L82.8262 155.623C81.1701 157.302 78.4791 156.418 76.8156 153.656L11.0716 44.5372C9.40806 41.776 9.39611 38.1741 11.0522 36.4941L42.7318 4.36211C44.3879 2.68361 47.0788 3.56766 48.7424 6.32883V6.32734Z" fill="#F0F5FF"/>
<path d="M66.9028 58.6931C72.7551 68.4057 72.7865 81.0587 66.973 86.9544C61.1594 92.85 51.7036 89.7559 45.8528 80.0447C40.0004 70.3321 39.969 57.6791 45.7826 51.7834C51.5961 45.8877 61.0519 48.9819 66.9028 58.6931Z" fill="#2CA07F"/>
<path d="M48.5632 74.2727C52.6998 76.6337 56.8363 78.9931 60.9728 81.3541C61.6956 81.7663 62.7439 81.5482 63.1486 80.7837C63.5473 80.028 63.3502 79.0484 62.5781 78.6079C58.4416 76.2469 54.3051 73.8874 50.1686 71.5265C49.4458 71.1143 48.3975 71.3324 47.9928 72.0969C47.594 72.8526 47.7912 73.8322 48.5632 74.2727Z" fill="#F0F5FF"/>
<path d="M54.0452 56.0417C54.8247 59.1075 55.6057 62.1748 56.3852 65.2406C57.2588 68.6768 58.1324 72.1114 59.006 75.5476C59.4182 77.1663 59.8289 78.7851 60.241 80.4024C60.4456 81.2088 61.3909 81.7748 62.1973 81.5134C63.0306 81.2431 63.5279 80.4218 63.3083 79.5572C62.5288 76.4914 61.7478 73.4241 60.9683 70.3582L58.346 60.0513C57.9338 58.4325 57.5232 56.8137 57.111 55.1964C56.9064 54.39 55.9611 53.8256 55.1547 54.0854C54.3215 54.3557 53.8242 55.177 54.0437 56.0417H54.0452Z" fill="#F0F5FF"/>
<path d="M113.465 113.753L114.485 115.446C116.148 118.208 116.16 121.809 114.504 123.489L82.8247 155.623C81.1686 157.301 78.4776 156.417 76.814 153.656L75.7941 151.963L113.465 113.754V113.753Z" fill="#C5D0E6"/>
<path d="M48.7424 6.32734L50.8047 9.75005L13.1339 47.9584L11.0716 44.5357C9.40806 41.7746 9.39611 38.1726 11.0522 36.4926L42.7318 4.36211C44.3879 2.68361 47.0788 3.56766 48.7424 6.32883V6.32734Z" fill="#C5D0E6"/>
<path d="M45.0807 9.03336C45.5765 9.85619 45.5795 10.9299 45.0867 11.4302C44.5939 11.9304 43.792 11.6676 43.2962 10.8448C42.8004 10.0219 42.7974 8.94824 43.2902 8.44797C43.783 7.94771 44.5849 8.21054 45.0807 9.03336Z" fill="#F0F5FF"/>
<path d="M42.5435 11.6066C43.0393 12.4309 43.0423 13.5031 42.5495 14.0034C42.0567 14.5037 41.2548 14.2408 40.759 13.418C40.2632 12.5937 40.2602 11.5215 40.753 11.0212C41.2458 10.521 42.0477 10.7838 42.5435 11.6066Z" fill="#F0F5FF"/>
<path d="M40.0064 14.1808C40.5022 15.0036 40.5052 16.0774 40.0124 16.5776C39.5196 17.0779 38.7176 16.8151 38.2219 15.9922C37.7261 15.1679 37.7231 14.0957 38.2159 13.5954C38.7087 13.0952 39.5106 13.358 40.0064 14.1808Z" fill="#F0F5FF"/>
<path d="M19.5403 37.3407L15.8413 41.0919C15.3082 41.6325 14.4734 41.404 13.9761 40.5812C13.4804 39.7584 13.5102 38.6518 14.0433 38.1097L17.7423 34.3585C18.2754 33.8179 19.1102 34.0464 19.6075 34.8692C20.1033 35.6935 20.0734 36.7986 19.5403 37.3407Z" fill="#F0F5FF"/>
<path d="M28.4942 23.089C29.0617 22.5126 29.9861 22.8158 30.558 23.764C31.13 24.7138 31.133 25.9503 30.5655 26.5267C29.998 27.1031 29.0736 26.8 28.5017 25.8517C27.9298 24.9019 27.9268 23.6655 28.4942 23.089Z" fill="#232B57"/>
<path d="M88.2888 98.5396C84.7929 102.086 81.2955 105.633 77.7996 109.18C75.7209 111.288 73.6422 113.397 71.5634 115.505C71.1438 115.931 70.7048 116.343 70.3016 116.785C69.8386 117.293 69.4832 117.775 68.7605 117.919C67.4598 118.178 66.2233 117.217 65.4124 116.31C64.388 115.165 63.6592 113.664 62.8767 112.35C61.6313 110.262 60.8607 107.658 61.5835 105.246C62.1226 103.447 63.9101 102.094 65.1854 100.801C69.6669 96.2548 74.1484 91.7091 78.6314 87.1634C79.2407 86.5452 79.835 85.9046 80.4637 85.3057C82.0601 83.7825 84.0163 84.3963 85.4604 85.8508C86.673 87.0723 87.5287 88.8285 88.3888 90.3069C89.6477 92.4677 90.8752 96.5864 88.4232 98.4381C87.7512 98.9458 88.4112 100.097 89.0922 99.582C91.0454 98.1066 91.3516 95.5799 90.9394 93.2995C90.5586 91.191 89.4222 89.4527 88.338 87.6547C87.3076 85.9449 86.1921 84.241 84.2732 83.4331C82.6036 82.7282 80.9341 83.0329 79.623 84.2679C75.1669 88.4686 70.996 93.0173 66.6982 97.3778C65.0421 99.0578 63.3352 100.699 61.7254 102.422C58.785 105.566 60.0573 110.243 62.033 113.522C63.0111 115.145 63.8982 116.937 65.4154 118.131C67.1566 119.5 69.416 119.763 70.999 118.029C72.3265 116.575 73.7377 115.189 75.1221 113.784C79.8231 109.015 84.5241 104.247 89.2236 99.4804C89.8224 98.8726 88.8861 97.9348 88.2858 98.5426L88.2888 98.5396Z" fill="#2A2D3D"/>
<path d="M185.425 142.094C183.577 137.836 181.577 133.642 179.642 129.424C177.692 125.173 175.744 120.921 173.791 116.671C170.852 110.275 167.668 103.576 162.321 98.8126C159.476 96.2784 156.129 94.5909 152.459 93.6068C148.212 92.4674 143.779 91.9791 139.441 91.3116C134.791 90.5948 130.138 89.8914 125.479 89.2298C118.838 88.2861 112.124 89.1223 105.661 90.7605C99.5186 92.3166 93.7454 94.9851 87.442 95.7214C84.0223 96.1216 79.048 95.9065 76.4526 98.59C72.9985 102.165 76.6199 107.62 80.0635 109.566C88.002 114.055 97.5474 110.58 105.977 112.365C112.164 113.674 117.875 116.949 123.094 120.458C123.887 120.992 124.672 121.535 125.456 122.082C125.149 125.079 125.129 128.106 125.406 131.106C125.958 137.093 127.657 142.96 130.468 148.278C133.011 153.089 136.428 157.438 140.472 161.076C144.59 164.779 149.385 167.796 154.578 169.746C160.172 171.847 166.475 172.725 172.298 171.041C172.983 170.842 173.657 170.604 174.318 170.336C178.708 170.237 183.079 168.143 185.775 164.652C190.893 158.026 188.436 149.029 185.424 142.091L185.425 142.094Z" fill="#F7D07D"/>
<path d="M61.0205 134.016C61.1474 132.233 60.5934 130.369 59.793 128.782C57.7635 124.757 54.3184 123.183 51.0376 121.645C45.3032 118.957 28.7481 110.215 29.1856 126.781C29.32 131.87 33.8329 134.065 36.7553 135.56C40.0884 137.264 43.5664 138.46 47.0922 139.343C51.2347 140.379 60.4157 142.45 61.019 134.018L61.0205 134.016Z" fill="#F7D07D"/>
<path d="M88.1947 141.926C85.5022 136.111 76.4586 136.607 70.878 137.252C66.1725 137.795 61.576 138.965 56.9213 139.805C51.1824 140.843 42.8063 143.678 43.7247 151.098C44.6416 158.511 53.2746 159.09 59.0508 158.365C64.0549 157.736 69.0128 156.707 73.8288 155.205C78.3058 153.808 87.4047 150.663 88.4321 146.935C88.8069 145.573 88.9981 143.661 88.1947 141.926Z" fill="#F7D07D"/>
<path d="M107.677 154.784C107.018 153.222 105.725 151.845 104.009 151.079C102.517 150.413 100.888 150.093 99.2797 149.854C94.7369 149.179 90.1106 149.408 85.5559 149.825C81.5478 150.192 76.9095 150.143 73.1702 151.758C70.1283 153.074 67.4851 155.786 67.5986 159.297C67.8122 165.936 75.4117 167.146 80.5861 166.968C85.0676 166.814 89.5431 166.303 93.929 165.361C97.8655 164.516 102.272 163.936 105.67 161.611C108.226 159.861 108.658 157.115 107.675 154.782L107.677 154.784Z" fill="#F7D07D"/>
<path d="M124.722 122.857C125.188 132.063 126.37 141.177 131.612 149.033C136.679 156.625 144.535 161.939 153.159 164.701C158.659 166.463 164.444 167.204 170.209 167.218C171.061 167.219 171.063 165.894 170.209 165.893C160.611 165.872 150.882 163.705 142.822 158.317C135.465 153.397 130.299 146.151 127.934 137.629C126.599 132.816 126.297 127.823 126.046 122.858C126.003 122.01 124.678 122.004 124.722 122.858V122.857Z" fill="#2A2D3D"/>
<path d="M118.051 118.19C121.672 120.602 124.984 123.436 128.434 126.079C129.11 126.597 129.772 125.447 129.103 124.935C125.653 122.292 122.343 119.458 118.72 117.046C118.008 116.573 117.343 117.719 118.051 118.19Z" fill="#2A2D3D"/>
<path d="M103.031 91.8484C119.42 87.0458 136.246 92.0007 152.348 95.5399C153.18 95.7221 153.534 94.4453 152.701 94.2616C136.361 90.6701 119.307 85.6959 102.679 90.5701C101.862 90.809 102.21 92.0888 103.031 91.8484Z" fill="#2A2D3D"/>
<path d="M68.2572 157.481C74.6516 155.859 81.2253 154.361 86.6461 150.398C87.327 149.899 86.667 148.749 85.977 149.254C80.6429 153.155 74.1947 154.609 67.9047 156.204C67.0789 156.413 67.4284 157.692 68.2572 157.483V157.481Z" fill="#2A2D3D"/>
<path d="M138.952 185.616C142.576 186.474 146.361 185.732 149.351 183.495C150.026 182.99 149.366 181.839 148.682 182.351C145.97 184.378 142.607 185.12 139.302 184.337C138.474 184.14 138.12 185.418 138.95 185.616H138.952Z" fill="#2A2D3D"/>
<path d="M95.4628 165.903C100.061 165.2 108.234 163.42 108.865 157.658C109.131 155.227 107.832 152.784 105.97 151.285C103.666 149.429 100.651 149 97.7954 148.739C96.9456 148.661 96.9516 149.987 97.7954 150.063C100.247 150.287 102.901 150.626 104.933 152.145C106.745 153.498 108.052 155.942 107.418 158.224C106.785 160.506 104.5 161.793 102.458 162.634C100.104 163.603 97.6251 164.239 95.1118 164.623C94.2711 164.752 94.628 166.028 95.4643 165.901L95.4628 165.903Z" fill="#2A2D3D"/>
<path d="M54.1721 138.591C56.9915 138.212 58.9224 135.903 58.8448 133.048C58.7582 129.873 56.4793 127.258 53.6838 126.016C51.066 124.853 47.5731 124.514 45.4063 126.739C43.2843 128.916 43.5993 132.354 45.1031 134.783C46.9877 137.831 50.5807 138.912 53.9959 138.614C54.8397 138.54 54.8471 137.214 53.9959 137.289C50.9749 137.553 47.7702 136.719 46.144 133.947C44.6163 131.346 44.906 127.406 48.2974 126.564C51.3677 125.802 55.1025 127.6 56.675 130.266C58.3714 133.141 57.3589 136.837 53.8197 137.313C52.979 137.426 53.3374 138.703 54.1721 138.591Z" fill="#2A2D3D"/>
<path d="M82.1347 149.835C85.1901 148.216 87.4719 144.263 84.5614 141.345C81.8047 138.583 76.8842 139.217 73.687 140.748C70.4181 142.314 68.0929 146.331 70.8885 149.466C73.781 152.711 78.7494 151.471 82.1347 149.833C82.9023 149.461 82.2303 148.319 81.4657 148.689C78.8121 149.974 74.9115 151.161 72.3489 149.04C69.4474 146.641 71.6277 143.194 74.356 141.892C76.8095 140.721 80.4025 140.157 82.8351 141.668C84.1149 142.462 84.8466 143.818 84.4972 145.337C84.1388 146.896 82.8127 147.976 81.4657 148.689C80.7116 149.088 81.3806 150.234 82.1347 149.833V149.835Z" fill="#2A2D3D"/>
<path d="M101.579 161.573C104.638 160.214 105.737 156.636 103.634 153.915C101.475 151.12 97.2204 150.573 94.071 151.809C90.9589 153.031 89.6149 156.488 91.4606 159.39C93.6499 162.829 97.9447 162.983 101.421 161.64C102.208 161.335 101.866 160.054 101.069 160.362C98.5077 161.35 95.2955 161.685 93.2243 159.505C91.0455 157.212 91.8385 153.963 94.8132 152.943C97.1562 152.139 100.268 152.387 102.11 154.185C104.245 156.272 103.555 159.254 100.912 160.427C100.134 160.772 100.807 161.915 101.581 161.571L101.579 161.573Z" fill="#2A2D3D"/>
<path d="M75.7313 100.588C78.0056 101.624 80.9146 101.188 83.2427 100.507C85.8098 99.7563 88.1304 98.3884 90.0762 96.5605C90.699 95.9751 89.7611 95.0403 89.1384 95.6242C87.4614 97.1997 85.4887 98.4003 83.295 99.1052C81.2581 99.7593 78.4238 100.367 76.4003 99.4442C75.6297 99.0932 74.9562 100.234 75.7313 100.588Z" fill="#2A2D3D"/>
</g>
<defs>
<clipPath id="clip0_7431_143">
<rect width="209.443" height="216" fill="white"/>
</clipPath>
</defs>
</svg>
