<svg width="237" height="181" viewBox="0 0 237 181" fill="none" xmlns="http://www.w3.org/2000/svg">
<g clip-path="url(#clip0_7431_243)">
<path d="M200.428 66.9652C194.983 70.4134 174.462 83.0746 173.286 83.7623C170.397 83.6152 167.489 83.7024 164.609 83.9189C149.359 85.0697 130.184 89.2329 120.711 102.565C118.825 105.218 117.037 107.905 114.873 110.347C113.732 111.633 112.523 112.858 111.26 114.024C108.513 114.92 105.767 115.816 103.021 116.711C99.1609 117.969 95.3021 119.229 91.4419 120.487C89.5689 121.099 87.6946 121.705 85.823 122.321C84.2359 122.843 82.6407 123.403 81.1842 124.233C79.6312 125.118 78.2632 126.328 77.4302 127.93C77.4234 127.944 77.418 127.957 77.4111 127.969C76.6407 128.845 75.9697 129.801 75.4647 130.873C74.2737 133.406 74.1172 136.458 75.8799 138.769C76.1888 139.173 76.5482 139.54 76.9443 139.853C76.2052 140.466 75.4933 141.113 74.8399 141.815C73.1834 143.595 71.8645 145.754 71.614 148.218C71.3854 150.466 72.2075 152.592 73.8164 154.159C75.089 155.399 76.672 156.261 78.3149 156.939C77.7351 158.465 77.6058 160.186 77.9924 161.746C79.0622 166.063 83.4968 168.718 87.6157 169.446C90.47 169.95 93.3788 169.747 96.2331 169.362C105.392 168.125 114.486 166.424 123.589 164.844C130.478 163.65 137.285 162.256 144.218 161.274C151.373 160.26 158.625 159.095 165.236 156.029C174.43 151.768 181.697 144.142 187.393 135.759C190.162 131.686 192.719 127.305 196.401 123.966C200.384 120.353 205.913 117.845 210.497 115.041C215.357 112.068 226.587 105.597 232.926 101.981C235.655 100.425 236.999 97.2256 236.203 94.186C231.927 77.8546 218.323 66.9312 202.8 66.3333C201.963 66.3006 201.134 66.5158 200.426 66.9652H200.428Z" fill="#F7D07D"/>
<path d="M79.6353 94.2133L1.24818 162.177C-1.15424 164.259 0.0149834 166.627 3.85886 167.466L64.5075 180.705C68.3514 181.544 73.4148 180.536 75.8159 178.454L154.203 110.492C156.605 108.409 155.436 106.041 151.592 105.202L90.9437 91.9636C87.0998 91.1246 82.0363 92.1324 79.6353 94.2147V94.2133Z" fill="#232B57"/>
<path d="M5.62154 156.796H0V164.349H5.62154V156.796Z" fill="#232B57"/>
<path d="M155.451 100.843H149.83V108.396H155.451V100.843Z" fill="#232B57"/>
<path d="M79.6353 86.6356L1.24818 154.598C-1.15424 156.68 0.0149834 159.048 3.85886 159.887L64.5075 173.126C68.3514 173.965 73.4148 172.957 75.8159 170.874L154.203 102.912C156.605 100.83 155.436 98.4619 151.592 97.623L90.9437 84.3845C87.0998 83.5455 82.0363 84.5533 79.6353 86.6356Z" fill="#232B57"/>
<path d="M79.5264 89.8703L5.01993 154.469C3.13338 156.104 4.0508 157.966 7.07118 158.625L64.9131 171.251C67.9335 171.91 71.9108 171.119 73.7987 169.482L148.305 104.883C150.192 103.248 149.274 101.386 146.254 100.727L88.412 88.1013C85.3916 87.4421 81.4143 88.2347 79.5264 89.8703Z" fill="#F0F5FF"/>
<path d="M78.3735 90.8705L79.5305 89.8682C81.4157 88.234 85.3929 87.44 88.4161 88.0991L146.255 100.725C149.278 101.384 150.192 103.247 148.307 104.881L147.15 105.884L78.3735 90.8705Z" fill="#C5D0E6"/>
<path d="M5.0213 154.469L7.35839 152.442L76.1344 167.455L73.7973 169.482C71.9121 171.116 67.9349 171.91 64.9118 171.251L7.07254 158.625C4.04944 157.966 3.13611 156.104 5.0213 154.469Z" fill="#C5D0E6"/>
<path d="M10.5721 156.144C11.1342 155.656 12.3184 155.421 13.2181 155.617C14.1179 155.813 14.3901 156.367 13.8293 156.855C13.2671 157.342 12.0829 157.578 11.1832 157.382C10.2835 157.186 10.0113 156.632 10.5721 156.144Z" fill="#F0F5FF"/>
<path d="M14.8665 157.08C15.4287 156.593 16.6129 156.357 17.5126 156.553C18.4123 156.75 18.6845 157.304 18.1237 157.791C17.5629 158.279 16.3774 158.515 15.4777 158.318C14.5779 158.122 14.3057 157.568 14.8665 157.08Z" fill="#F0F5FF"/>
<path d="M19.1609 158.018C19.7231 157.53 20.9073 157.295 21.807 157.491C22.7067 157.687 22.9789 158.241 22.4181 158.729C21.856 159.216 20.6718 159.452 19.7721 159.256C18.8723 159.06 18.6001 158.506 19.1609 158.018Z" fill="#F0F5FF"/>
<path d="M61.449 166.145L66.782 167.31C67.6817 167.506 67.9539 168.06 67.3931 168.548C66.831 169.035 65.6468 169.271 64.7471 169.075L59.4141 167.91C58.5144 167.714 58.2421 167.16 58.8029 166.672C59.3651 166.185 60.5493 165.949 61.449 166.145Z" fill="#F0F5FF"/>
<path d="M25.7815 150.07C24.0324 149.688 22.2834 149.306 20.5343 148.925C19.621 148.726 19.2303 150.13 20.1477 150.33C21.8968 150.711 23.6459 151.094 25.3949 151.475C26.3083 151.674 26.6989 150.27 25.7815 150.07Z" fill="#2A2D3D"/>
<path d="M27.0637 148.958C25.3146 148.576 23.5656 148.194 21.8165 147.812C20.9032 147.613 20.5125 149.017 21.4299 149.218C23.179 149.599 24.9281 149.982 26.6771 150.363C27.5905 150.562 27.9811 149.158 27.0637 148.958Z" fill="#2A2D3D"/>
<path d="M28.3459 147.846C26.5968 147.465 24.8478 147.082 23.0987 146.701C22.1853 146.502 21.7947 147.906 22.7121 148.106C24.4612 148.488 26.2103 148.87 27.9593 149.252C28.8727 149.45 29.2633 148.046 28.3459 147.846Z" fill="#2A2D3D"/>
<path d="M71.9652 158.007C70.4339 158.207 68.9026 158.409 67.3714 158.609C66.4553 158.729 66.4431 160.189 67.3714 160.066C68.9026 159.866 70.4339 159.665 71.9652 159.464C72.8813 159.345 72.8935 157.885 71.9652 158.007Z" fill="#2A2D3D"/>
<path d="M71.4507 159.251C71.9952 159.905 72.541 160.56 73.0855 161.213C73.3373 161.516 73.8545 161.473 74.1159 161.213C74.4153 160.914 74.369 160.486 74.1159 160.182C73.57 159.529 73.0256 158.874 72.4811 158.22C72.2293 157.918 71.7121 157.96 71.4507 158.22C71.1513 158.52 71.1976 158.947 71.4507 159.251Z" fill="#2A2D3D"/>
<path d="M37.8072 163.365C38.8444 163.591 40.211 163.32 40.8589 162.758C41.5068 162.195 41.1911 161.557 40.1539 161.331C39.1167 161.104 37.7501 161.377 37.1022 161.938C36.4543 162.5 36.77 163.139 37.8072 163.365Z" fill="#232B57"/>
<path d="M42.3276 144.43L76.6993 151.933C79.7918 152.608 83.8671 151.797 85.7999 150.122L87.6592 148.511L89.2994 147.087C89.916 146.554 89.4777 145.543 88.6678 145.628L84.5613 146.054L49.3266 138.362C46.2341 137.687 42.1588 138.498 40.226 140.173C38.2932 141.85 39.2337 143.755 42.3262 144.43H42.3276Z" fill="#61A0FF"/>
<path d="M71.9026 118.787L106.274 126.29C109.367 126.965 113.442 126.154 115.375 124.478L117.234 122.866L118.874 121.443C119.491 120.909 119.053 119.899 118.243 119.983L114.136 120.409L78.9016 112.717C75.8091 112.042 71.7338 112.854 69.801 114.529C67.8682 116.205 68.8087 118.11 71.9012 118.786L71.9026 118.787Z" fill="#61A0FF"/>
<path d="M69.051 138.614L45.887 133.557C42.7945 132.882 41.8539 130.977 43.7867 129.3L45.6461 127.689L47.2863 126.266L48.5058 125.208C48.9441 124.828 49.6016 124.852 50.0099 125.265L52.0231 127.3L76.0487 132.544C79.1412 133.22 80.0817 135.125 78.1489 136.801C76.2161 138.478 72.1422 139.288 69.0483 138.613L69.051 138.614Z" fill="#C5D0E6"/>
<path d="M88.3466 110.725L75.4634 107.913C72.3708 107.238 71.4303 105.332 73.3631 103.656L75.2224 102.045L76.8626 100.622L77.8862 99.7352C78.4361 99.2585 79.2596 99.2899 79.7714 99.8074L81.6021 101.657L95.347 104.657C98.4395 105.332 99.3801 107.238 97.4472 108.914C95.5144 110.591 91.4405 111.401 88.3466 110.725Z" fill="#C5D0E6"/>
<path d="M79.555 121.653L105.17 127.245C108.266 127.92 109.208 129.828 107.273 131.504C105.339 133.181 101.261 133.994 98.1659 133.317L72.5505 127.725C69.4553 127.05 68.5134 125.142 70.4475 123.465C72.3817 121.788 76.4597 120.976 79.555 121.653Z" fill="#61A0FF"/>
<path d="M114.664 148.274C113.725 147.691 109.488 143.306 116.122 135.929C122.756 128.552 141.013 123.791 141.013 123.791C141.013 123.791 149.076 109.212 155.451 100.844C161.827 92.4736 187.204 94.9358 186.687 97.526C186.168 100.116 136.45 138.124 136.45 138.124L114.666 148.274H114.664Z" fill="#F7D07D"/>
<path d="M155.966 101.187C164.697 91.1751 177.951 85.7222 191.196 86.6905C192.131 86.7586 192.127 85.3014 191.196 85.2333C177.605 84.2405 163.894 89.8841 154.935 100.158C154.321 100.862 155.348 101.897 155.966 101.189V101.187Z" fill="#2A2D3D"/>
<path d="M112.465 146.708C114.308 150.044 118.055 150.646 121.522 150.047C124.412 149.548 127.152 148.354 129.878 147.316C132.674 146.251 135.468 145.184 138.261 144.112C149.523 139.788 160.761 135.4 171.974 130.951C172.836 130.609 172.46 129.2 171.588 129.545C161.271 133.639 150.935 137.68 140.578 141.667C135.491 143.626 130.425 145.685 125.283 147.493C121.604 148.788 116.07 150.22 113.724 145.971C113.271 145.15 112.012 145.884 112.466 146.706L112.465 146.708Z" fill="#2A2D3D"/>
<path d="M144.932 141.501C146.419 142.616 147.668 143.995 148.658 145.565C149.156 146.356 150.418 145.626 149.915 144.829C148.784 143.036 147.362 141.515 145.667 140.243C144.917 139.68 144.19 140.944 144.932 141.501Z" fill="#2A2D3D"/>
<path d="M120.197 149.563C122.118 143.056 129.806 140.623 135.211 144.639C135.964 145.199 136.69 143.934 135.946 143.381C129.761 138.786 120.958 141.839 118.793 149.174C118.527 150.076 119.932 150.461 120.197 149.561V149.563Z" fill="#2A2D3D"/>
<path d="M179.94 25.5568C179.127 23.9144 177.684 22.4641 175.855 22.046C173.535 21.5162 171.416 22.8127 169.579 24.067C168 25.1455 166.422 26.2269 164.843 27.3082C165.035 26.7158 165.211 26.1547 165.367 25.6345C165.649 24.7002 165.584 23.6979 165.183 22.8086C163.485 19.0295 160.858 14.8908 158.101 12.0649C152.103 5.91616 144.008 2.22145 135.618 0.737028C130.142 -0.232613 124.489 -0.240784 119 0.692087C117.701 0.912707 116.592 1.75297 116.02 2.94051C113.627 7.90447 109.048 17.7657 105.892 24.8173C105.404 24.4306 104.921 24.0424 104.427 23.672C100.627 20.8176 96.4726 17.7834 91.4487 18.4207C87.6089 18.9083 83.9174 21.1499 81.3381 23.9757C80.3349 25.0747 79.4896 26.3072 78.839 27.6377C77.8535 27.1747 76.7823 26.8819 75.6947 26.7893C72.7737 26.5387 69.9534 27.8298 67.9131 29.8739C67.5374 30.2498 66.8418 31.2358 66.8214 31.3147C64.061 31.7914 61.253 32.234 58.6314 33.2254C56.0384 34.206 53.7843 35.8811 52.0666 38.0573C50.1828 40.446 48.8747 43.2228 47.6823 45.9996C46.5403 48.6607 45.4269 51.3326 44.3162 54.0073C43.5989 55.7355 42.8312 57.4501 42.1479 59.1933C41.6062 60.5756 41.225 62.1444 41.9655 63.5321C42.6107 64.7401 43.8847 65.5259 45.1479 65.9535C46.4913 66.4084 47.9437 66.4642 49.3388 66.2531C52.317 65.8024 54.8855 64.0415 57.1287 62.1267C58.6954 60.788 60.1722 59.3431 61.5538 57.8124C61.3782 59.7462 61.2162 61.6814 61.076 63.6179C60.8718 66.422 60.7017 69.2288 60.5642 72.0356C60.4444 74.5005 60.2253 77.0118 60.4131 79.4781C60.5683 81.5154 61.0869 83.6209 62.5406 85.1352C63.8977 86.5488 65.8727 87.1263 67.7946 86.9819C69.7561 86.8348 71.6685 86.0354 73.1507 84.743C74.8304 83.2777 75.9751 81.2894 76.7945 79.2398C77.6861 77.009 78.1816 74.6544 78.7097 72.3106C78.9914 77.5252 79.3494 82.737 79.7918 87.9407C80.1253 91.8791 80.2764 96.1622 81.3163 100.001C82.6189 104.814 87.8307 108.149 91.9319 104.957C94.0498 103.308 95.4518 100.998 96.2453 98.4991C97.9196 93.2287 97.7399 87.3483 97.5166 81.86C99.5284 82.9767 101.611 83.9668 103.76 84.8002C108.818 86.764 114.214 87.8944 119.643 87.9951C124.719 88.0891 129.791 87.2529 134.54 85.4498C144.754 81.5726 151.426 73.825 157.377 65.0315C159.83 61.4063 161.575 57.461 163.905 53.7745C167.629 47.8817 172.935 43.3821 177.093 37.8285C178.525 35.9165 179.851 33.8355 180.457 31.4986C180.977 29.4899 180.866 27.4321 179.94 25.5595V25.5568Z" fill="#F7D07D"/>
<path d="M62.3201 57.7632C62.904 53.1683 63.5928 48.5884 64.3945 44.0262C64.7756 41.8554 65.1826 39.6886 65.6127 37.526C66.017 35.4996 66.2511 33.1844 67.6993 31.5965C68.3309 30.9047 67.3032 29.8724 66.669 30.5656C65.4031 31.952 64.9281 33.6461 64.5497 35.4465C64.0161 37.9782 63.541 40.5235 63.0891 43.0715C62.2221 47.9483 61.4871 52.8482 60.8623 57.7618C60.7439 58.6892 62.2017 58.6811 62.3187 57.7618L62.3201 57.7632Z" fill="#2A2D3D"/>
<path d="M79.3167 72.4033C79.1534 64.9703 78.9914 57.5373 78.8281 50.1057C78.7478 46.4382 78.6675 42.7694 78.5872 39.1019C78.5463 37.2675 78.4987 35.4344 78.466 33.6C78.4347 31.8255 78.4238 30.0578 79.3331 28.4726C79.8 27.6582 78.5422 26.9228 78.0754 27.7372C76.4842 30.514 77.0191 34.014 77.0858 37.0755C77.1729 41.033 77.2587 44.9906 77.3458 48.9481C77.5173 56.7665 77.6888 64.5863 77.859 72.4047C77.8794 73.3416 79.3358 73.3444 79.3154 72.4047L79.3167 72.4033Z" fill="#2A2D3D"/>
<path d="M96.9368 69.2877C97.0294 73.6062 97.1219 77.9232 97.2145 82.2417C97.2349 83.1786 98.6913 83.1814 98.6709 82.2417C98.5783 77.9232 98.4858 73.6062 98.3932 69.2877C98.3728 68.3508 96.9164 68.348 96.9368 69.2877Z" fill="#2A2D3D"/>
<path d="M105.395 25.4754C106.037 25.9997 106.681 26.5227 107.324 27.047C107.629 27.2948 108.056 27.3452 108.354 27.047C108.61 26.791 108.66 26.2666 108.354 26.0161C107.712 25.4917 107.068 24.9688 106.425 24.4445C106.12 24.1966 105.693 24.1462 105.395 24.4445C105.139 24.7005 105.089 25.2248 105.395 25.4754Z" fill="#2A2D3D"/>
<path d="M107.209 26.163C103.646 30.8955 100.823 36.1223 98.3224 41.4812C97.1001 44.1014 95.9541 46.7556 94.8325 49.4194C93.6769 52.1635 92.4559 54.9186 91.7359 57.8166C90.6823 62.0588 90.4645 68.5616 95.9486 69.6321C101.614 70.7379 105.263 66.4957 108.417 62.515C113.121 56.5787 117.826 50.641 122.53 44.7047C123.108 43.9774 122.083 42.9397 121.5 43.6737C117.881 48.24 114.261 52.8077 110.644 57.374C108.89 59.587 107.185 61.8518 105.357 64.0049C103.734 65.9142 101.826 67.69 99.2834 68.1858C96.44 68.74 93.5979 67.8562 92.8207 64.8274C92.1619 62.2549 92.7445 59.4154 93.4931 56.93C95.0366 51.8095 97.4214 46.8169 99.6877 41.981C102.161 36.7051 104.953 31.5614 108.464 26.8984C109.029 26.1494 107.765 25.4222 107.207 26.163H107.209Z" fill="#2A2D3D"/>
<path d="M108.467 26.8998C110.313 24.2646 113.245 23.0349 116.42 23.2241C120.011 23.438 123.023 25.5529 125.722 27.7523C131.796 32.6986 137.748 37.8001 143.758 42.8253C144.472 43.4232 145.508 42.3977 144.788 41.7944C141.227 38.8174 137.668 35.8404 134.107 32.8634C130.872 30.1587 127.725 27.2512 124.274 24.8189C121.452 22.8292 118.192 21.4687 114.683 21.7956C111.579 22.0843 108.994 23.6164 107.208 26.1658C106.669 26.9352 107.931 27.6652 108.466 26.9012L108.467 26.8998Z" fill="#2A2D3D"/>
<path d="M141.207 45.5446C149.141 39.5865 157.159 33.7427 165.261 28.0161C166.02 27.4796 165.294 26.2144 164.526 26.7578C156.424 32.4844 148.404 38.3281 140.472 44.2862C139.731 44.8432 140.457 46.1084 141.207 45.5446Z" fill="#2A2D3D"/>
<path d="M43.275 65.2046C47.1406 64.9772 49.3021 61.5684 49.8561 58.0331C50.3379 54.9607 49.1919 51.5615 45.8475 50.803C44.9342 50.596 44.5449 52.0014 45.461 52.2084C51.1955 53.5076 48.2921 63.4519 43.275 63.7474C42.3439 63.8019 42.3371 65.2604 43.275 65.2046Z" fill="#2A2D3D"/>
<path d="M63.0442 85.92C68.6794 86.955 71.4384 81.0963 71.354 76.2794C71.3091 73.7341 70.1726 70.6278 67.6966 69.5246C64.4625 68.0838 61.4639 70.7653 60.1804 73.5367C59.7884 74.3824 61.0447 75.1232 61.4381 74.2721C62.5637 71.8398 65.6114 69.0289 68.1322 71.5947C69.5274 73.0151 69.9806 75.1341 69.8813 77.0611C69.6975 80.6319 67.7538 85.3085 63.4294 84.5132C62.5134 84.3444 62.12 85.7498 63.0429 85.9187L63.0442 85.92Z" fill="#2A2D3D"/>
<path d="M91.6011 64.928C96.6646 67.8792 101.81 63.0732 103.285 58.308C103.986 56.0433 103.767 52.9314 101.957 51.2237C99.4277 48.8391 95.8098 50.2173 93.6714 52.3499C93.0072 53.0132 94.0362 54.0441 94.7018 53.3809C96.5543 51.5328 100.165 50.2254 101.66 53.2637C102.504 54.9797 102.281 57.1532 101.529 58.8542C99.9966 62.3214 96.2521 65.9521 92.3361 63.6697C91.5249 63.1971 90.7898 64.4555 91.6011 64.928Z" fill="#2A2D3D"/>
<path d="M84.5368 105.251C90.1882 105.442 91.9659 99.2484 91.2595 94.6086C90.8702 92.051 89.2804 89.0631 86.6152 88.3331C83.162 87.388 80.6262 90.5584 79.7632 93.4986C79.4991 94.4002 80.9038 94.7856 81.1679 93.8854C81.9764 91.1263 84.8811 88.0145 87.7028 90.6102C89.1606 91.9516 89.8207 93.9154 89.9337 95.8451C90.1433 99.4227 88.8543 103.939 84.5368 103.793C83.5989 103.762 83.6003 105.219 84.5368 105.25V105.251Z" fill="#2A2D3D"/>
</g>
<defs>
<clipPath id="clip0_7431_243">
<rect width="236.431" height="181" fill="white"/>
</clipPath>
</defs>
</svg>
