<svg width="233" height="174" viewBox="0 0 233 174" fill="none" xmlns="http://www.w3.org/2000/svg">
<g clip-path="url(#clip0_7431_179)">
<path d="M120.441 86.7617C120.441 86.7617 128.188 77.9137 132.095 73.7058C134.216 71.4217 138.09 65.1894 139.393 62.3235C147.886 49.8673 156.148 47.995 165.16 49.7919C174.172 51.5888 194.982 64.0629 194.982 64.0629L177.743 96.2861C177.743 96.2861 142.818 117.688 142.232 117.551C141.647 117.413 120.441 86.7605 120.441 86.7605V86.7617Z" fill="#2CA07F"/>
<path d="M134.416 157.992C134.019 157.992 133.654 157.726 133.546 157.324L124.83 124.863C124.7 124.381 124.985 123.887 125.466 123.758C125.948 123.628 126.442 123.913 126.571 124.395L135.288 156.856C135.417 157.337 135.132 157.832 134.651 157.961C134.573 157.982 134.494 157.992 134.416 157.992Z" fill="#DA7D5D"/>
<path d="M61.6786 154.986C61.5253 154.986 61.3697 154.947 61.2285 154.865C60.7975 154.616 60.6502 154.064 60.8992 153.633L86.7776 108.704C87.0266 108.273 87.6994 108.12 88.1304 108.369C88.5613 108.618 88.7086 109.17 88.4596 109.6L62.4603 154.535C62.2927 154.824 61.9898 154.985 61.6786 154.985V154.986Z" fill="#DA7D5D"/>
<path d="M59.8745 151.379C59.8745 151.379 78.4911 161.298 103.596 160.997C128.701 160.697 145.625 150.778 148.164 151.079C150.703 151.379 156.063 153.784 155.216 154.986C154.37 156.188 137.445 167.61 106.135 168.812C74.8243 170.014 48.5915 157.691 47.7452 155.888C46.8988 154.085 59.0281 150.778 59.8745 151.379Z" fill="#DA7D5D"/>
<path d="M193.78 23.1875L184.762 26.1935L177.849 34.3088L179.953 38.2163L196.484 34.9098L193.78 23.1875Z" fill="#E88D74"/>
<path d="M151.496 12.4629L164.625 20.783L166.709 32.9757C166.709 32.9757 152.051 27.3325 146.64 25.8301C141.23 24.3277 151.496 12.4629 151.496 12.4629Z" fill="#F7D07D"/>
<path d="M199.264 61.1733C197.992 68.6111 195.454 77.9116 190.774 87.8107C180.254 110.05 156.811 134.696 128.858 131.692C100.905 128.687 84.3738 104.04 84.3738 104.04L121.945 93.8191L149.898 60.7591C149.898 60.7591 192.049 45.1474 198.883 44.4255C199.394 44.3728 199.708 44.4015 199.79 44.526C200.458 45.528 200.849 51.8992 199.264 61.1733Z" fill="#E5573F"/>
<path d="M199.264 61.1733C188.079 66.1977 181.431 81.7089 181.431 81.7089L176.126 84.8047C170.82 87.8981 171.485 83.6986 165.296 80.3837L198.883 44.4255C199.394 44.3728 199.708 44.4015 199.79 44.526C200.458 45.528 200.849 51.8992 199.264 61.1733Z" fill="#3A1714"/>
<path d="M9.08502 104.258C9.08502 104.258 31.305 106.578 32.872 103.729C34.0033 101.672 33.4035 95.8399 33.4035 95.8399L18.8416 91.3555L9.08622 104.257L9.08502 104.258Z" fill="#E5573F"/>
<path d="M30.5713 98.9307C26.4233 101.224 24.5725 101.979 21.636 103.103C16.4847 105.074 11.7201 104.807 7.12793 104.04C-0.0859818 102.838 -1.88886 96.5257 2.01857 91.7168C4.14707 89.0963 11.6244 88.0835 18.1894 87.704C23.6747 87.3856 28.5231 87.5089 29.0701 87.5089C30.2721 87.5089 33.2062 85.5791 33.2062 85.5791C33.2062 85.5791 41.9944 92.6182 30.5737 98.9307H30.5713Z" fill="#F7D07D"/>
<path d="M20.4159 103.489C15.2646 105.461 11.7187 104.806 7.12653 104.04C-0.0873856 102.838 -1.89026 96.5258 2.01717 91.7169C4.14567 89.0964 11.6229 88.0836 18.188 87.7041C21.3927 88.1782 24.2192 98.8135 20.4171 103.489H20.4159Z" fill="#E5573F"/>
<path d="M5.23628 167.94C5.23628 167.94 4.6449 168.672 4.6449 169.418C4.6449 170.09 5.32367 171.221 16.445 171.823C27.5664 172.424 44.313 172.113 44.6985 169.418C44.999 167.314 41.392 167.159 41.392 167.159L5.23628 167.94Z" fill="#E5573F"/>
<path d="M136.53 102.397C136.53 102.397 97.1556 106.004 94.4512 105.703C91.7457 105.403 78.2205 106.304 78.2205 106.304C78.2205 106.304 53.975 156.277 51.6789 160.648C51.6658 160.673 51.582 160.813 51.4706 161C51.2133 161.427 44.5129 159.673 38.7679 157.076C33.8956 154.869 29.4985 152.663 29.4985 152.663C39.6789 135.597 54.9567 97.5841 55.074 97.2896C54.7556 97.4787 34.6976 109.773 30.5807 108.859C26.9546 108.053 27.5819 98.4029 28.39 92.1264C28.8173 88.8043 30.8249 85.8977 33.7806 84.3235C44.7368 78.4886 72.0589 64.2236 77.3191 64.2236C83.932 64.2236 135.479 81.8071 135.479 81.8071L136.532 102.397H136.53Z" fill="#739BC8"/>
<path d="M56.3573 95.3157C56.2759 95.3157 56.1921 95.299 56.1131 95.2631C55.8102 95.1278 55.6738 94.7723 55.809 94.4694C57.0062 91.7854 58.3338 89.2642 58.9264 88.3772C60.5042 86.0152 64.5852 84.8875 68.4208 85.7531C68.7452 85.8261 68.9475 86.1481 68.8745 86.4713C68.8015 86.7958 68.4795 86.9981 68.1562 86.9251C64.8366 86.1757 61.2213 87.1058 59.9272 89.044C59.3753 89.87 58.0632 92.366 56.908 94.9578C56.8086 95.1817 56.5884 95.3146 56.3585 95.3146L56.3573 95.3157Z" fill="#376B90"/>
<path d="M110.071 102.087C110.007 102.087 109.941 102.076 109.876 102.054C109.56 101.946 78.1176 91.1508 62.6482 84.606C62.343 84.4768 62.1993 84.1236 62.3286 83.8183C62.4579 83.5131 62.8098 83.3694 63.1163 83.4987C78.5473 90.0279 109.95 100.808 110.267 100.917C110.58 101.025 110.748 101.367 110.64 101.681C110.555 101.93 110.322 102.087 110.071 102.087Z" fill="#376B90"/>
<path d="M51.5808 160.807C51.5389 160.888 51.503 160.954 51.4754 161.002C50.6614 162.466 44.2172 159.968 38.4734 157.371L40.0069 154.27C40.0069 154.27 51.8166 158.219 51.582 160.807H51.5808Z" fill="#1A1A1A"/>
<path d="M42.4132 155.141C41.4639 154.745 40.4307 154.342 39.3018 153.939C32.465 151.498 30.1486 152.265 29.4985 152.663C28.3684 154.634 27.3317 156.242 26.9786 156.644C19.1637 165.516 5.03755 165.516 5.63851 168.522C6.23947 171.528 42.3078 170.171 42.9088 168.367C43.5097 166.564 41.4064 162.957 41.4064 159.951C41.4064 159.095 41.8206 157.287 42.4144 155.141H42.4132Z" fill="#F7D07D"/>
<path d="M26.9785 170.17C26.9785 170.17 24.273 159.504 22.7706 159.204C21.2682 158.903 4.43297 164.063 4.73704 169.122C4.73704 169.122 7.21031 170.323 17.3608 170.324C27.5125 170.325 26.9785 170.168 26.9785 170.168V170.17Z" fill="#E5573F"/>
<path d="M178.751 40.0189C178.751 40.0189 166.127 55.3482 158.012 52.3422C149.896 49.3362 157.411 39.7184 157.411 39.7184C157.411 39.7184 160.266 38.7655 162.833 37.6139C164.47 36.8776 165.992 36.0624 166.577 35.3597C167.158 34.6629 169.598 33.5412 172.375 32.4267C176.72 30.6801 184 27.6011 184.161 27.5508C184.055 27.6825 178.751 35.0652 178.751 40.0189Z" fill="#F7D07D"/>
<path d="M131.112 80.6555C131.112 80.6555 130.535 79.5996 131.318 78.5928C132.281 77.355 133.793 78.0433 136.07 73.0812C137.92 69.0481 146.59 47.8337 147.491 45.7292C148.393 43.6246 158.312 39.1162 158.312 39.1162C158.312 39.1162 156.208 45.7292 160.717 46.9311C165.789 48.2838 176.155 42.7639 176.155 42.7639L159.515 90.8131L137.438 89.7285L131.113 80.6543L131.112 80.6555Z" fill="white"/>
<path d="M178.15 33.1065C178.15 33.1065 172.102 41.7654 162.833 37.6149C164.47 36.8787 167.345 34.2653 167.93 33.5626C168.511 32.8659 169.598 33.5423 172.375 32.4277L178.149 33.1065H178.15Z" fill="#1A1A1A"/>
<path d="M172.333 91.9644C172.333 91.9644 182.219 72.7026 190.322 61.5082C200.306 55.1718 232.844 35.6286 232.994 28.5656C233.193 19.2064 227.442 15.0703 223.234 15.0703C220.228 15.0703 199.339 20.9315 199.339 20.9315C199.339 20.9315 199.79 18.6773 199.64 18.226C199.188 16.8732 193.327 21.2319 193.027 22.4339C192.726 23.6358 191.825 30.2487 193.027 33.5552C193.027 33.5552 184.159 37.3118 181.155 37.6123C181.155 37.6123 181.155 37.3118 180.253 36.7109C179.858 36.4475 179.352 36.2655 179.352 36.2655C179.352 36.2655 170.184 47.0804 166.577 53.6934C162.97 60.3063 159.964 72.3291 159.063 76.537C158.161 80.7449 153.052 90.0622 153.052 90.0622C153.052 90.0622 170.829 92.5654 172.333 91.9644Z" fill="#2CA07F"/>
<path d="M194.832 33.4068C194.667 33.4068 194.507 33.3158 194.428 33.1578C194.317 32.9351 194.407 32.6646 194.63 32.5532C194.779 32.479 209.648 25.0089 217.121 19.9594C217.327 19.8194 217.607 19.8744 217.747 20.0803C217.886 20.2862 217.832 20.5676 217.626 20.7064C210.104 25.7895 195.184 33.2847 195.033 33.3601C194.968 33.3924 194.899 33.408 194.831 33.408L194.832 33.4068Z" fill="#9A8E53"/>
<path d="M209.016 25.6282C208.85 25.6282 208.715 25.4941 208.715 25.3277C208.715 25.2356 208.733 23.0256 210.302 20.4099C210.387 20.2675 210.572 20.2208 210.714 20.307C210.857 20.392 210.902 20.5775 210.817 20.72C209.339 23.1849 209.315 25.3074 209.315 25.3289C209.315 25.4941 209.18 25.6294 209.014 25.6294L209.016 25.6282Z" fill="#9A8E53"/>
<path d="M199.94 29.3481C199.799 29.3481 199.672 29.2475 199.644 29.1027C199.637 29.0668 198.974 25.4502 199.361 20.8329C199.374 20.6677 199.52 20.5444 199.685 20.5588C199.85 20.5731 199.974 20.718 199.959 20.8832C199.58 25.4155 200.229 28.9566 200.235 28.9913C200.264 29.1542 200.158 29.311 199.994 29.3421C199.975 29.3457 199.957 29.3469 199.939 29.3469L199.94 29.3481Z" fill="#9A8E53"/>
<path d="M161.768 70.0759C161.692 70.0759 161.614 70.0568 161.542 70.0149C161.327 69.8904 161.254 69.6138 161.378 69.3984C165.271 62.6944 172.021 55.7618 175.647 52.0376C176.595 51.0643 177.496 50.1377 177.791 49.7678C177.615 49.5823 177.189 49.2758 176.889 49.0615C175.991 48.4186 175.144 47.8105 175.144 47.0826C175.144 46.1573 176.766 45.7538 179.436 45.1984C179.913 45.099 180.491 44.9793 180.724 44.9051C180.959 44.2742 180.977 41.0958 180.854 38.3867C180.843 38.1377 181.035 37.927 181.284 37.9162C181.54 37.909 181.744 38.0982 181.754 38.346C182.068 45.251 181.463 45.5539 181.205 45.6832C180.979 45.7957 180.506 45.8975 179.618 46.0818C178.651 46.283 176.427 46.7451 176.052 47.1305C176.148 47.4226 177.026 48.0511 177.412 48.3289C178.188 48.8855 178.75 49.2866 178.75 49.7882C178.75 50.1162 178.566 50.3317 176.292 52.6673C172.693 56.364 165.994 63.2439 162.157 69.8521C162.074 69.9957 161.923 70.0771 161.767 70.0771L161.768 70.0759Z" fill="#9A8E53"/>
<path d="M190.313 61.8198C190.183 61.8198 190.064 61.7348 190.024 61.6043C189.644 60.321 189.213 58.0608 188.5 54.3162C188.038 51.8896 187.464 48.8705 186.706 45.0839C186.673 44.9211 186.779 44.7631 186.942 44.7308C187.104 44.6973 187.262 44.8038 187.295 44.9666C188.053 48.7567 188.628 51.7771 189.09 54.2049C189.8 57.9303 190.228 60.1798 190.6 61.4331C190.648 61.5924 190.557 61.76 190.398 61.8067C190.369 61.815 190.34 61.8186 190.312 61.8186L190.313 61.8198Z" fill="#9A8E53"/>
<path d="M192.951 20.6639C193.035 20.7094 193.134 20.7286 193.236 20.7142C193.486 20.6771 193.66 20.4448 193.623 20.1946C193.521 19.5003 193.272 18.8287 192.883 18.1978C192.27 17.2018 191.512 16.632 190.632 16.5015C189.258 16.298 188.136 17.2748 188.09 17.3155C187.9 17.4831 187.883 17.7728 188.05 17.962C188.218 18.1523 188.507 18.1691 188.697 18.0015C188.704 17.9955 189.555 17.2641 190.504 17.4077C191.103 17.4987 191.64 17.9261 192.104 18.6779C192.427 19.2022 192.633 19.7565 192.717 20.3275C192.738 20.476 192.829 20.5981 192.952 20.6639H192.951Z" fill="#842A2E"/>
<path d="M136.942 70.9628C136.942 70.9628 138.433 67.8934 139.978 65.5686C141.973 62.5673 144.654 59.1483 145.839 56.1004C147.944 50.6906 156.058 42.5753 158.163 40.7712C159.293 39.8027 161.42 38.6175 163.264 37.5641C164.852 36.6566 168.184 33.4483 168.532 32.9611C169.041 32.2476 160.717 37.0134 159.215 37.0134L157.28 34.4551C156.612 33.3609 154.718 32.0812 153.833 31.0313C153.566 30.7153 153.612 29.7779 153.532 29.3925C153.424 28.8801 152.42 27.7811 151.817 26.6247C150.488 24.0808 150.21 20.7947 150.445 18.9247C151.046 14.1159 152.699 12.7631 152.398 12.1621C152.098 11.5612 148.491 7.05279 147.289 7.05279C146.087 7.05279 145.035 9.0065 144.734 9.60746C144.734 9.60746 138.264 7.20722 136.619 6.60147C133.764 5.54919 127.602 7.50291 125.498 13.2144C123.393 18.9247 137.725 47.9839 138.326 50.6894C138.927 53.3949 139.828 57.9033 139.828 57.9033C139.828 57.9033 139.279 65.5674 136.943 70.9628H136.942Z" fill="#2CA07F"/>
<path d="M142.478 20.2789C142.327 20.2789 142.196 20.1652 142.18 20.0119C141.886 17.3687 142.524 12.6807 144.1 9.41012C144.172 9.26048 144.351 9.19823 144.501 9.27006C144.651 9.34189 144.713 9.52146 144.641 9.6711C143.112 12.8435 142.492 17.3866 142.777 19.9449C142.795 20.1101 142.676 20.2585 142.511 20.2765C142.5 20.2765 142.489 20.2789 142.478 20.2789Z" fill="#9A8E53"/>
<path d="M145.151 26.3274C143.233 26.3274 139.374 25.2105 138.893 25.0692C138.654 24.9986 138.518 24.7484 138.588 24.509C138.659 24.2707 138.909 24.1331 139.148 24.2037C140.176 24.5054 142.547 25.1351 144.179 25.3529C142.053 23.8266 137.749 20.6949 136.599 19.5445C136.423 19.3685 136.423 19.0836 136.599 18.9064C136.775 18.7304 137.059 18.7304 137.237 18.9064C138.696 20.3657 145.822 25.4188 145.894 25.4703C146.042 25.5744 146.112 25.7564 146.075 25.9324C146.038 26.1083 145.899 26.246 145.722 26.2807C145.562 26.313 145.369 26.3274 145.151 26.3274Z" fill="#9A8E53"/>
<path d="M140.883 63.2409C140.836 63.2409 140.789 63.2338 140.743 63.2182C140.506 63.1404 140.378 62.8854 140.455 62.6496C141.288 60.1093 145.496 47.3873 146.475 46.4644C146.932 46.0334 148.123 45.2612 149.384 44.4436C150.471 43.7385 152.105 42.679 152.348 42.3702C152.391 42.1643 152.162 41.4771 152.025 41.0629C151.751 40.2417 151.515 39.533 151.748 39.0661C152.015 38.5322 153.945 37.9456 157.484 37.3207C157.73 37.2764 157.963 37.4416 158.006 37.6858C158.049 37.9312 157.885 38.1646 157.641 38.2077C155.5 38.586 152.996 39.1762 152.549 39.497C152.525 39.7137 152.746 40.3745 152.88 40.7768C153.154 41.598 153.39 42.3067 153.156 42.7748C152.956 43.1734 152.051 43.7888 149.875 45.199C148.703 45.9592 147.491 46.7445 147.094 47.1192C146.433 47.8147 143.196 57.1859 141.312 62.9285C141.249 63.1188 141.073 63.2386 140.883 63.2386V63.2409Z" fill="#9A8E53"/>
<path d="M91.1352 107.195C91.1352 107.195 101.505 105.698 112.475 94.271C122.338 83.9984 129.006 81.0463 141.63 83.7506C154.254 86.4561 170.629 94.1405 183.666 78.7861L182.207 93.3684L137.723 126.431L91.1352 107.194V107.195Z" fill="#E5573F"/>
<path d="M163.228 88.2283C156.247 88.2283 148.958 86.3285 141.507 84.1844C138.344 83.2746 135.536 83.2327 133.202 83.3093C132.959 83.3261 132.745 83.1226 132.737 82.8736C132.728 82.6246 132.923 82.4163 133.172 82.4079C135.574 82.3277 138.472 82.3732 141.756 83.3177C150.817 85.9238 159.63 88.1685 167.85 87.0156C177.009 85.7311 184.329 80.2159 190.231 70.1564C190.357 69.9421 190.634 69.8691 190.848 69.996C191.062 70.1217 191.135 70.3983 191.008 70.6125C184.958 80.9246 177.423 86.5823 167.974 87.9075C166.41 88.1266 164.826 88.2271 163.226 88.2271L163.228 88.2283Z" fill="white"/>
<path d="M91.784 107.217C91.553 107.217 91.4189 107.202 91.3818 107.199C91.1352 107.169 90.958 106.945 90.9879 106.697C91.0178 106.45 91.2417 106.272 91.4871 106.303C91.5781 106.313 99.0195 106.95 112.158 93.9524C119.341 86.8474 125.081 82.6814 133.171 82.4109C133.424 82.3965 133.629 82.5976 133.637 82.8466C133.645 83.0956 133.45 83.3039 133.201 83.3123C125.407 83.5733 119.816 87.6471 112.792 94.5941C100.84 106.418 93.5378 107.218 91.784 107.218V107.217Z" fill="white"/>
<path d="M77.4735 110.202C77.3873 110.202 77.2999 110.183 77.2161 110.144C76.9157 110.001 76.7876 109.643 76.93 109.343L79.6355 103.632C79.778 103.332 80.1359 103.204 80.4364 103.346C80.7369 103.489 80.865 103.847 80.7225 104.147L78.017 109.857C77.9141 110.074 77.6986 110.201 77.4735 110.201V110.202Z" fill="#FFEDF1"/>
<path d="M172.74 163.102C172.359 163.102 171.992 162.842 171.805 162.481L153.466 126.934C137.546 126.955 125.569 119.434 120.524 115.618C118.945 114.423 117.028 113.76 115.048 113.73C97.067 113.457 89.7297 111.16 87.3044 110.104C86.78 109.877 86.4915 109.273 86.7046 108.743C86.9273 108.187 87.5617 107.938 88.1052 108.178C89.9811 109.004 96.296 111.693 117.205 111.693C117.472 111.693 119.233 111.852 120.506 112.965C120.649 113.091 133.435 124.934 153.423 124.934C153.645 124.934 153.867 124.933 154.091 124.929C154.499 124.921 154.857 125.145 155.04 125.499L173.676 161.567C173.943 162.083 173.741 162.718 173.225 162.985C173.07 163.065 172.905 163.102 172.742 163.102H172.74Z" fill="#DA7D5D"/>
<path d="M104.662 164.155C104.568 164.155 104.474 164.143 104.38 164.116C103.82 163.961 103.492 163.381 103.648 162.821L117.473 112.927C117.629 112.367 118.21 112.04 118.769 112.195C119.329 112.35 119.657 112.93 119.501 113.489L105.676 163.383C105.546 163.848 105.124 164.154 104.663 164.154L104.662 164.155Z" fill="#DA7D5D"/>
<path d="M94.4417 155.888C94.4417 155.888 114.279 165.806 141.029 165.506C167.78 165.205 185.814 155.287 188.519 155.588C191.225 155.888 196.935 158.293 196.034 159.495C195.132 160.697 177.098 172.119 143.735 173.321C110.372 174.523 82.4189 162.199 81.5174 160.397C80.616 158.594 93.5402 155.287 94.4417 155.888Z" fill="#E9946B"/>
<path d="M136.906 165.392C132.992 165.392 122.144 164.942 107.243 160.685C107.003 160.617 106.864 160.367 106.933 160.127C107.001 159.888 107.25 159.749 107.49 159.817C126.12 165.14 138.326 164.467 138.447 164.46C138.698 164.448 138.909 164.633 138.925 164.882C138.94 165.131 138.751 165.344 138.502 165.36C138.477 165.361 137.927 165.392 136.905 165.392H136.906Z" fill="#A9644C"/>
<path d="M168.869 11.9206C168.869 11.9206 166.537 5.03471 172.438 1.09975C178.751 -3.10817 183.137 6.10495 183.137 6.10495C182.768 4.86233 183.895 0.875882 186.663 2.80446C189.43 4.73304 189.27 14.6249 189.27 14.6249C189.27 14.6249 190.308 13.5475 191.373 13.7235C193.181 14.0216 190.137 17.4573 190.137 17.4573C190.137 17.4573 193.246 20.2634 192.152 22.8025C191.056 25.3416 183.86 31.1561 181.155 31.4566C177.5 31.8624 170.33 21.9909 170.33 21.9909L168.869 11.9194V11.9206Z" fill="#842A2E"/>
<path d="M169.596 10.579C169.596 10.579 160.511 23.3799 161.189 27.7781C161.547 30.1018 164.99 32.5295 166.803 33.4023C172.389 36.0886 177.507 35.0531 181.155 29.6552C181.155 29.6552 187.144 32.0519 187.416 24.8643C187.564 20.9413 182.23 24.1939 182.23 24.1939C182.23 24.1939 181.213 23.1967 182.658 19.136C179.652 18.8356 173.418 12.7517 173.201 9.05859C173.201 9.05859 171.791 10.379 169.598 10.579H169.596Z" fill="#F7D07D"/>
<path d="M166.588 21.5159C166.708 21.2884 167.005 21.1938 167.233 21.3171C167.457 21.438 167.681 21.559 167.905 21.6799C168.131 21.802 168.224 22.0953 168.104 22.3251C167.984 22.5526 167.686 22.6471 167.458 22.5238C167.234 22.4029 167.011 22.282 166.787 22.1611C166.56 22.039 166.467 21.7457 166.588 21.5159Z" fill="#E5816A"/>
<path d="M175.521 14.4838C175.945 14.9866 176.445 15.42 176.841 15.9467C177.244 16.4806 177.575 17.0636 177.956 17.6119C178.3 18.1063 177.539 18.6786 177.193 18.1794C176.814 17.6311 176.483 17.0469 176.079 16.5142C175.681 15.9898 175.182 15.5553 174.758 15.0513C174.368 14.588 175.13 14.0205 175.521 14.4838Z" fill="#842A2E"/>
<path d="M169.962 13.5503C170.109 13.4964 170.224 13.3684 170.255 13.2031C170.302 12.9541 170.138 12.7159 169.89 12.6692C169.831 12.6585 168.432 12.4035 167.018 12.8308C166.775 12.9015 166.638 13.1589 166.711 13.4019C166.784 13.6437 167.041 13.7814 167.282 13.7083C168.476 13.348 169.709 13.5683 169.721 13.5707C169.805 13.5862 169.887 13.5779 169.962 13.5503Z" fill="#842A2E"/>
<path d="M181.156 18.2334C181.156 18.2334 180.254 20.0363 181.696 22.148C181.696 22.148 177.248 27.5519 172.74 26.9497C170.357 26.6325 169.675 24.6799 167.631 23.3428C165.645 22.0451 162.679 22.4222 161.612 24.237C160.139 26.7402 157.356 32.8635 163.639 34.8065C169.511 36.6213 176.085 35.9857 179.755 32.1189C180.384 31.4569 181.501 30.3687 181.315 29.4745C181.192 28.8843 181.125 27.516 181.365 26.6839C181.619 25.8041 181.829 24.4621 184.004 23.0566C186.179 21.65 183.829 18.2933 183.829 18.2933L181.156 18.2346V18.2334Z" fill="#842A2E"/>
<path d="M165.268 26.6598C165.348 26.3055 165.465 25.92 165.775 25.7309C165.938 25.6315 166.134 25.6016 166.325 25.6016C167.108 25.6004 167.811 26.0517 168.464 26.485C168.531 26.5293 168.598 26.5748 168.649 26.6371C168.793 26.8119 168.762 27.0812 168.64 27.2716C168.518 27.4619 168.323 27.5912 168.133 27.7157C167.506 28.1263 166.879 28.5369 166.252 28.9475C165.834 29.2205 165.035 29.5174 164.914 28.7991C164.811 28.1862 165.132 27.2572 165.268 26.6598Z" fill="#1A1A1A"/>
<path d="M176.008 19.5514C175.991 19.1995 175.642 18.8499 175.358 18.6715C175.021 18.4609 174.701 18.2418 174.292 18.2011C173.979 18.1699 173.349 18.1795 173.121 18.4309C172.942 18.6273 173.013 19.0079 173.239 19.13C173.372 19.2019 173.524 19.1696 173.663 19.142C173.859 19.1037 174.015 19.1205 174.208 19.1815C174.603 19.306 174.819 19.4533 174.98 19.8292C175.094 20.0973 175.296 20.2853 175.608 20.2254C175.946 20.1596 176.08 19.8687 176.009 19.5514C176.009 19.5263 176.027 19.6316 176.009 19.5514H176.008Z" fill="#1A1A1A"/>
<path d="M165.368 17.4978C165.29 17.4703 165.263 17.3757 165.259 17.2931C165.244 16.8933 165.557 16.5377 165.926 16.3821C166.331 16.2109 166.936 16.1343 167.339 16.3426C167.436 16.3929 167.529 16.4647 167.559 16.5701C167.626 16.8059 167.565 17.0262 167.384 17.195C167.015 17.5397 166.693 17.2105 166.31 17.1231C166.147 17.086 166.024 17.1088 165.869 17.171C165.801 17.1986 165.385 17.505 165.367 17.499L165.368 17.4978Z" fill="#1A1A1A"/>
</g>
<defs>
<clipPath id="clip0_7431_179">
<rect width="233" height="173.403" fill="white"/>
</clipPath>
</defs>
</svg>
