<svg width="19" height="20" viewBox="0 0 19 20" fill="none" xmlns="http://www.w3.org/2000/svg">
<path d="M9.29183 20C9.21435 20 9.13664 19.9913 9.06122 19.9741C8.44229 19.832 6.26799 19.222 4.27272 17.3354C3.02132 16.1523 2.02782 14.6675 1.31948 12.9224C0.444029 10.7652 0 8.19414 0 5.28056V3.31211C0 2.76859 0.425003 2.31677 0.967603 2.28353C2.7655 2.1735 4.50265 1.83904 6.13113 1.28956C7.33691 0.882901 8.24354 0.434745 8.79187 0.13032C9.10501 -0.0434401 9.47912 -0.0434401 9.79226 0.13032C10.3404 0.434516 11.247 0.882671 12.453 1.28956C14.0815 1.83904 15.8189 2.17327 17.6165 2.28353C18.1591 2.31677 18.5841 2.76859 18.5841 3.31211V5.28056C18.5841 8.19414 18.1401 10.7652 17.2644 12.9224C16.5561 14.6675 15.5626 16.1523 14.3112 17.3354C12.3161 19.2215 10.1414 19.832 9.52245 19.9741C9.44703 19.9915 9.36932 20 9.29183 20Z" fill="#00BA85"/>
<path d="M7.12292 14.0166L4.45783 11.3516C4.21002 11.1038 4.21002 10.7019 4.45783 10.4541L5.16708 9.74484C5.41488 9.49704 5.81673 9.49704 6.06454 9.74484L7.57153 11.2518L12.5194 6.30402C12.7672 6.05621 13.169 6.05621 13.4168 6.30402L14.1261 7.01327C14.3739 7.26108 14.3739 7.66293 14.1261 7.91073L8.02038 14.0164C7.77257 14.2642 7.37072 14.2642 7.12292 14.0164V14.0166Z" fill="white"/>
</svg>
