<svg width="232" height="383" viewBox="0 0 232 383" fill="none" xmlns="http://www.w3.org/2000/svg">
<g clip-path="url(#clip0_7388_1182)">
<path d="M32.9706 247.253L53.4826 227.676C54.7501 229.903 55.7548 231.882 56.5432 233.707C48.8763 239.135 42.2451 245.877 35.6138 252.403C34.3309 250.3 32.9706 247.253 32.9706 247.253Z" fill="#FCF0E4"/>
<path d="M33.4498 268.269C36.3094 264.928 37.747 255.387 36.3094 253.469C36.093 253.176 35.8457 252.804 35.6138 252.418C42.2451 245.892 48.8763 239.15 56.5431 233.722C59.2791 240.093 59.1555 244.346 57.3006 249.17C54.9201 255.371 42.0287 274.949 39.169 276.372C36.3094 277.81 23.418 281.15 23.418 281.15C23.418 274.47 30.5747 271.609 33.4343 268.269H33.4498Z" fill="#E5573F"/>
<path d="M145.655 49.5747C144.99 51.7242 140.848 68.6265 146.15 78.0751C151.452 87.5237 166.028 87.5237 167.187 105.075C168.346 122.643 97.1343 115.344 81.2286 107.72C65.323 100.096 72.6188 86.5185 83.8718 83.6886C87.8289 82.6989 95.4649 78.7246 95.4649 73.2503C95.4649 67.776 99.1128 29.3477 99.1128 29.3477L145.655 49.5593V49.5747Z" fill="#060606"/>
<path d="M104.616 84.1064C102.297 84.4157 100.071 85.0961 98.0771 86.3333C95.8049 87.7405 94.0118 89.7509 92.4661 91.9313" stroke="#006FB9" stroke-miterlimit="10"/>
<path d="M130.599 92.4569C127.771 88.6991 123.396 86.6115 118.775 85.4053" stroke="#006FB9" stroke-miterlimit="10"/>
<path d="M101.818 83.3484L104.136 71.7194L111.649 70.374C111.139 76.7298 107.367 81.9103 101.802 83.3484H101.818Z" fill="#060606"/>
<path d="M93.5791 95.9678H99.2983L101.818 83.3491C107.367 81.9109 111.139 76.7304 111.664 70.3747L119.238 69.0293L124.618 94.9008L132.207 95.4884C121.882 106.313 103.688 106.746 93.5791 95.9678Z" fill="#E5573F"/>
<path d="M58.8926 143.381L85.2939 95.952H93.579C103.688 106.731 121.882 106.298 132.207 95.4727L159.087 97.5758L172.551 180.031C158.005 210.742 166.09 245.243 166.09 245.243C126.766 253.33 54.58 238.237 54.58 238.237L58.8926 143.396V143.381Z" fill="#FCF0E4"/>
<path d="M54.5801 238.222L166.09 245.227L167.45 264.665C128.946 261.882 90.4876 261.572 52.3697 258.217L54.5955 238.206L54.5801 238.222Z" fill="#D8D0C3"/>
<path d="M43.9917 373.935C43.2498 353.491 44.0226 333.017 46.2794 312.697L52.3542 258.232C90.4721 261.573 128.93 261.897 167.434 264.681L195.057 562.304C183.727 565.829 162.163 570.329 150.524 571.829C140.183 511.628 109.732 310.099 109.732 310.099L106.872 290.661L104.585 291.233L88.3235 571.489C74.7056 569.912 51.3649 568.536 38.0097 565.737L44.0072 373.95L43.9917 373.935Z" fill="#D8D0C3"/>
<path d="M91.1831 95.9365C91.1831 95.9365 84.9847 93.555 77.3488 97.8386C69.7128 102.138 39.4318 131.442 2.44227 179.458C-0.571922 183.371 -2.13312 196.299 6.09021 209.227C14.3135 222.155 31.5485 250.361 31.5485 250.361L57.3933 230.768C57.3933 230.768 39.7719 197.072 39.3854 195.123C38.999 193.159 58.5681 173.582 58.5681 173.582L91.1986 95.921L91.1831 95.9365Z" fill="#2CA07F"/>
<path d="M96.7942 95.7971C96.7942 95.7971 91.1986 174.54 89.8847 186.726C88.5709 198.912 80.0075 249.974 75.0611 253.608C70.1147 257.227 52.0141 256.237 52.0141 256.237L57.9343 160.035L85.0775 95.627L96.7942 95.7816V95.7971Z" fill="#2CA07F"/>
<path d="M132.207 95.4727C132.207 95.4727 125.066 128.813 123.304 146.504C121.541 164.195 118.605 230.938 128.173 257.521C132.145 268.578 169.289 267.248 169.289 267.248C169.289 267.248 164.42 212.397 165.75 204.881C167.079 197.366 172.381 182.768 172.381 182.768L159.103 97.5758L132.223 95.4727H132.207Z" fill="#2CA07F"/>
<path d="M138.251 209.984C138.251 209.984 131.001 209.227 129.085 208.84C127.183 208.453 119.532 200.814 113.055 198.525C113.055 198.525 112.298 200.056 114.199 202.732C116.1 205.407 119.161 208.469 119.161 208.469C119.161 208.469 105.002 196.391 102.668 196.314C94.9702 196.036 99.5456 212.304 101.849 214.206C104.136 216.124 131.372 232.918 139.781 232.918C148.19 232.918 138.251 210 138.251 210V209.984Z" fill="#E5573F"/>
<path d="M138.251 209.984C138.251 209.984 148.175 232.902 139.781 232.902C137.895 232.902 135.005 232.423 131.62 231.649V209.211C134.448 209.582 138.251 209.984 138.251 209.984Z" fill="#FCF0E4"/>
<path d="M135.731 204.958V234.727C135.731 234.727 198.257 240.665 214.734 235.562C231.227 230.458 206.882 149.163 199.431 132.663C191.965 116.163 181.377 100.854 169.985 98.8896C158.593 96.9257 146.041 96.5391 146.041 96.5391L155.857 139.746L176.276 201.788L135.731 204.958Z" fill="#2CA07F"/>
<path d="M92.4661 91.9316C92.0951 92.4574 91.7396 92.9987 91.3841 93.5399C84.5828 104.102 81.3368 116.659 80.2393 129.185C79.1264 141.711 80.0538 154.314 80.9658 166.855" stroke="#006FB9" stroke-miterlimit="10"/>
<path d="M126.952 151.36C126.071 134.102 136.319 119.658 134.217 102.509C133.784 98.9365 132.748 95.3334 130.584 92.457" stroke="#006FB9" stroke-miterlimit="10"/>
<path d="M126.766 150.958L143.986 177.278C145.655 179.83 143.831 183.216 140.786 183.216H132.748" stroke="#006FB9" stroke-miterlimit="10"/>
<path d="M126.967 150.958L109.748 177.278C108.078 179.83 109.902 183.216 112.947 183.216H120.985" stroke="#006FB9" stroke-miterlimit="10"/>
<path d="M132.037 184.979C131.055 184.979 130.259 184.182 130.259 183.2C130.259 182.218 131.055 181.422 132.037 181.422C133.019 181.422 133.815 182.218 133.815 183.2C133.815 184.182 133.019 184.979 132.037 184.979Z" fill="#6B7CFE"/>
<path d="M120.027 183.2C120.027 184.174 120.815 184.979 121.804 184.979C122.794 184.979 123.582 184.19 123.582 183.2C123.582 182.211 122.794 181.422 121.804 181.422C120.815 181.422 120.027 182.211 120.027 183.2Z" fill="#6B7CFE"/>
<path d="M68.6772 170.844C68.6772 176.767 73.4845 181.577 79.4046 181.577C85.3248 181.577 90.1321 176.767 90.1321 170.844C90.1321 164.922 85.3248 160.112 79.4046 160.112C73.4845 160.112 68.6772 164.922 68.6772 170.844Z" fill="#6B7CFE"/>
<path d="M79.3892 176.938C82.7434 176.938 85.4794 174.201 85.4794 170.845C85.4794 167.489 82.7434 164.752 79.3892 164.752C76.0349 164.752 73.2989 167.489 73.2989 170.845C73.2989 174.201 76.0349 176.938 79.3892 176.938Z" stroke="#006FB9" stroke-miterlimit="10"/>
<path d="M120.088 70.8385C120.088 70.8385 108.835 77.9829 99.9784 77.117C91.1058 76.251 87.226 70.4055 87.8598 59.8126C87.8598 59.8126 82.8825 56.9981 82.2333 55.9156C81.5841 54.8331 88.9418 45.7402 88.9418 45.7402C88.9418 45.7402 88.509 37.9463 89.3746 35.5648C90.2402 33.1834 95.0011 23.0234 106.022 23.0234C117.043 23.0234 122.237 55.0496 122.237 55.0496C122.237 55.0496 128.513 53.3177 131.11 57.4311C133.706 61.5446 131.326 70.8385 122.886 69.3385L120.073 70.854L120.088 70.8385Z" fill="#E5573F"/>
<path d="M95.5885 60.1064C94.8465 62.4106 92.1724 63.8797 89.8229 63.3075" stroke="#1E171D" stroke-width="0.5" stroke-miterlimit="10"/>
<path d="M122.948 63.3225C123.195 61.2194 125.004 59.6265 126.936 58.776C128.327 58.1575 129.997 57.8327 131.341 58.5595" stroke="#1E171D" stroke-width="0.5" stroke-miterlimit="10"/>
<path d="M95.7276 43.6982C95.6504 43.5745 95.5576 43.4508 95.4803 43.3426L95.5731 43.4663C95.2794 43.0951 94.9393 42.7549 94.5683 42.4611L94.692 42.5539C94.3056 42.2446 93.8728 41.9972 93.409 41.8116L93.5482 41.8735C93.2235 41.7343 92.868 41.6261 92.528 41.5487C92.2343 41.4869 92.0333 41.1157 92.1261 40.8374C92.2343 40.5281 92.528 40.3735 92.8371 40.4353C94.0583 40.6827 95.2175 41.3477 96.0677 42.2601C96.315 42.523 96.5469 42.8323 96.7478 43.1415C96.9179 43.389 96.8097 43.791 96.5469 43.9302C96.2532 44.0849 95.9286 43.9921 95.7586 43.7292L95.7276 43.6982Z" fill="#1E171D"/>
<path d="M122.253 55.034C122.253 55.034 106.733 48.9102 97.4589 25.5439C97.4589 25.5439 108.217 15.1057 125.947 18.5851C143.661 22.0645 149.133 41.6112 144.666 53.2093L122.268 55.034H122.253Z" fill="#060606"/>
<path d="M118.821 36.8485L126.055 22.8998C126.055 22.8998 118.017 2.79646 114.261 0.909833C110.505 -0.961327 100.318 12.9873 100.056 13.7915C99.7929 14.5956 102.467 22.6369 102.467 22.6369C102.467 22.6369 108.372 16.2039 118.821 36.8485Z" fill="#F7F3ED"/>
<path d="M57.0687 178.917C57.0842 170.659 57.0996 162.402 57.1306 154.144C57.1306 149.458 57.1615 144.711 58.2899 140.149C60.0829 132.927 64.5192 126.679 68.8782 120.648" stroke="#1E171D" stroke-width="0.5" stroke-miterlimit="10"/>
<path d="M45.522 207.882C40.9157 199.887 37.1132 191.443 34.1763 182.706" stroke="#1E171D" stroke-width="0.5" stroke-miterlimit="10"/>
<path d="M174.112 201.804C177.976 201.092 181.872 200.505 185.782 200.025" stroke="#1E171D" stroke-width="0.5" stroke-miterlimit="10"/>
<path d="M173.107 191.659C169.784 181.638 166.105 171.757 162.071 161.999" stroke="#1E171D" stroke-width="0.5" stroke-miterlimit="10"/>
<path d="M70.764 145.019C71.7532 145.019 72.557 144.215 72.557 143.226V136.282C72.557 135.292 71.7532 134.488 70.764 134.488C69.7747 134.488 68.9709 135.292 68.9709 136.282V143.226C68.9709 144.215 69.7747 145.019 70.764 145.019Z" fill="#E6DCDD"/>
<path d="M65.5084 139.762C65.5084 140.751 66.3122 141.555 67.3015 141.555H74.2419C75.2311 141.555 76.0349 140.751 76.0349 139.762C76.0349 138.772 75.2311 137.968 74.2419 137.968H67.3015C66.3122 137.968 65.5084 138.772 65.5084 139.762Z" fill="#E6DCDD"/>
<path d="M92.667 46.5289C92.868 46.1268 93.1153 45.7557 93.5017 45.4928C93.6872 45.3691 93.8882 45.2608 94.1046 45.2299C94.5683 45.1526 95.032 45.3845 95.403 45.6629C96.2222 46.2969 96.7632 47.3176 96.7478 48.3691C96.7323 49.4207 96.1295 50.4413 95.1866 50.9052C95.1093 50.9362 95.0475 50.9516 94.9856 50.9826C95.4339 49.0805 94.661 47.3485 92.6825 46.5444L92.667 46.5289Z" fill="#FCF0E4"/>
<path d="M92.2188 48.3376C92.2497 47.7191 92.3888 47.085 92.6516 46.5283C94.6301 47.3479 95.403 49.0644 94.9547 50.9665C92.9298 51.8016 92.126 50.1005 92.2033 48.3376H92.2188Z" fill="#1E171D"/>
<path d="M124.509 54.3843L85.1084 47.1162" stroke="black" stroke-miterlimit="10"/>
<path d="M86.6387 40.0801L85.1084 53.5493" stroke="black" stroke-miterlimit="10"/>
<path d="M96.7633 48.9414C96.5469 48.9414 96.315 48.8176 96.2068 48.6321C96.1604 48.5548 96.1295 48.4465 96.0986 48.3692L96.1604 48.5238C96.0677 48.3073 95.944 48.1063 95.8049 47.9053L95.9286 48.0599C95.8049 47.9053 95.6658 47.7506 95.5267 47.596C95.3876 47.4413 95.233 47.3022 95.063 47.1785L95.2484 47.3176C94.9238 47.0702 94.5683 46.8692 94.1819 46.7145L94.4137 46.8228C94.1355 46.6991 93.8418 46.6063 93.5481 46.529C93.409 46.4826 93.2544 46.4516 93.1153 46.4207C92.9762 46.3898 92.8216 46.3279 92.6825 46.2815C92.0797 46.096 91.4614 45.9413 90.874 45.7403C90.704 45.6784 90.5494 45.632 90.3794 45.5547C90.2093 45.4774 90.0548 45.4155 89.8847 45.3537C89.7147 45.2918 89.591 45.1681 89.4674 45.0444L89.2973 44.8279L89.1891 44.565L89.1582 44.2867C89.1582 44.132 89.1891 44.0083 89.251 43.8691C89.2819 43.7763 89.3283 43.699 89.3901 43.6372C89.4365 43.5598 89.4983 43.498 89.5756 43.4516C89.7456 43.3124 90.0084 43.1887 90.2248 43.2196C90.2557 43.2196 90.3021 43.2196 90.333 43.2196C90.4412 43.2196 90.5494 43.2506 90.6576 43.266C90.7503 43.297 90.8431 43.3433 90.9358 43.3897C91.0131 43.4207 91.0749 43.4516 91.1522 43.4825L90.8895 43.3743C91.415 43.5908 91.956 43.7609 92.497 43.9155C92.7598 43.9928 93.0226 44.0702 93.2854 44.1475C93.6254 44.2557 93.95 44.3794 94.2901 44.5341C95.3412 45.0135 96.315 45.7094 96.9333 46.6991C97.0415 46.8692 97.1033 47.0547 97.1652 47.2248C97.2115 47.3486 97.2424 47.4723 97.2734 47.596C97.3197 47.7661 97.3352 47.9517 97.3506 48.1218C97.3506 48.1836 97.3506 48.2609 97.3506 48.3228C97.3506 48.6475 97.0879 48.9568 96.7478 48.9568L96.7633 48.9414Z" fill="#1E171D"/>
<path d="M123.458 241.933C109.577 241.114 94.4292 240.573 80.5485 239.846" stroke="#1E171D" stroke-width="0.5" stroke-miterlimit="10"/>
<path d="M111.525 291.527C106.471 291.156 101.4 290.8 96.3459 290.429" stroke="#1E171D" stroke-width="0.5" stroke-miterlimit="10"/>
<path d="M122.484 69.3535C115.961 71.8896 112.221 78.9877 111.262 85.9156C110.644 90.4002 111.015 95.1477 113.179 99.122C115.343 103.096 119.532 106.127 124.061 106.081C129.471 106.019 133.83 101.936 138.591 99.3849C145.33 95.7662 153.631 95.1631 160.819 97.792" fill="#060606"/>
</g>
<defs>
<clipPath id="clip0_7388_1182">
<rect width="232" height="610.261" fill="white" transform="matrix(-1 0 0 1 232 0.739258)"/>
</clipPath>
</defs>
</svg>
