<svg width="39" height="45" viewBox="0 0 39 45" fill="none" xmlns="http://www.w3.org/2000/svg">
<path fill-rule="evenodd" clip-rule="evenodd" d="M20.6088 44.7216C24.7398 42.5451 39 34.0035 39 19.8084C39 8.86853 30.2696 0 19.5 0C8.73045 0 0 8.86853 0 19.8084C0 34.0035 14.2602 42.5451 18.3912 44.7216C19.0956 45.0928 19.9044 45.0928 20.6088 44.7216ZM19.5 28.2977C24.1155 28.2977 27.8571 24.4969 27.8571 19.8084C27.8571 15.1199 24.1155 11.3191 19.5 11.3191C14.8845 11.3191 11.1429 15.1199 11.1429 19.8084C11.1429 24.4969 14.8845 28.2977 19.5 28.2977Z" fill="#E5573F"/>
</svg>
