<svg width="94" height="20" viewBox="0 0 94 20" fill="none" xmlns="http://www.w3.org/2000/svg">
<g clip-path="url(#clip0_7486_547)">
<path d="M36.0044 5.32804C37.0985 6.33117 37.6455 7.72378 37.6455 9.50956C37.6455 11.2953 37.1132 12.71 36.0448 13.7499C34.9765 14.7897 33.3501 15.3115 31.162 15.3115H27.2374V3.8252H31.2942C33.3427 3.8252 34.9104 4.32492 36.0081 5.32804H36.0044ZM34.1247 12.1552C34.7525 11.5636 35.0682 10.7038 35.0682 9.5757C35.0682 8.44765 34.7525 7.58048 34.1247 6.97052C33.4969 6.36056 32.5277 6.05926 31.2281 6.05926H29.7999V13.0444H31.4263C32.5975 13.0444 33.4969 12.7467 34.1284 12.1552H34.1247Z" fill="#E5573F"/>
<path d="M48.4501 10.8911C48.4501 12.1734 48.0059 13.2537 47.1211 14.1283C46.2364 15.0064 45.1203 15.4437 43.7802 15.4437C42.4402 15.4437 41.3241 15.0064 40.4394 14.1283C39.5509 13.2501 39.1104 12.1734 39.1104 10.8911C39.1104 9.60868 39.5546 8.5284 40.4394 7.64653C41.3241 6.76466 42.4402 6.32373 43.7802 6.32373C45.1203 6.32373 46.2364 6.76466 47.1211 7.64653C48.0096 8.5284 48.4501 9.60868 48.4501 10.8911ZM41.5848 10.8911C41.5848 11.6149 41.7904 12.2028 42.2016 12.6585C42.6128 13.1141 43.1378 13.3419 43.7766 13.3419C44.4154 13.3419 44.944 13.1141 45.3516 12.6585C45.7627 12.2028 45.9683 11.6149 45.9683 10.8911C45.9683 10.1672 45.7627 9.57561 45.3516 9.11631C44.9404 8.657 44.4154 8.42551 43.7766 8.42551C43.1378 8.42551 42.6091 8.657 42.2016 9.11631C41.7904 9.57561 41.5848 10.1672 41.5848 10.8911Z" fill="#E5573F"/>
<path d="M54.5078 13.2574C55.3302 13.2574 56.0681 12.8459 56.7253 12.0265L58.1864 13.6689C57.0483 14.8521 55.8148 15.4437 54.4931 15.4437C53.1714 15.4437 52.048 15.0248 51.1339 14.187C50.2197 13.3493 49.7608 12.2543 49.7608 10.9021C49.7608 9.54989 50.2234 8.44756 51.1486 7.59876C52.0737 6.74997 53.1714 6.32373 54.4417 6.32373C55.0768 6.32373 55.7193 6.45601 56.3691 6.7169C57.019 6.98146 57.5917 7.36727 58.0836 7.88537L56.8024 9.56092C56.516 9.22287 56.1709 8.95831 55.7597 8.77091C55.3485 8.58351 54.941 8.49165 54.5372 8.49165C53.891 8.49165 53.3367 8.7011 52.8704 9.12366C52.4041 9.54622 52.1729 10.1305 52.1729 10.8837C52.1729 11.637 52.4041 12.2175 52.8704 12.6328C53.3367 13.048 53.88 13.2574 54.5041 13.2574H54.5078Z" fill="#E5573F"/>
<path d="M66.4799 12.5592C66.4799 13.4301 66.1605 14.1282 65.518 14.6537C64.8755 15.1791 64.0642 15.4437 63.0803 15.4437C62.4231 15.4437 61.7402 15.3261 61.028 15.0909C60.3158 14.8558 59.677 14.5067 59.1079 14.0474L60.1909 12.5041C61.1088 13.217 62.089 13.5734 63.1317 13.5734C63.4474 13.5734 63.7007 13.5109 63.8879 13.386C64.0752 13.2611 64.167 13.092 64.167 12.8863C64.167 12.6805 64.0385 12.4857 63.7815 12.3094C63.5245 12.133 63.15 11.9713 62.6654 11.817C62.1771 11.6627 61.8063 11.5341 61.5493 11.4238C61.2923 11.3136 60.9986 11.1556 60.6719 10.9462C60.0037 10.5309 59.6696 9.91364 59.6696 9.09791C59.6696 8.28218 59.9964 7.61711 60.6535 7.10269C61.3107 6.58827 62.1588 6.33105 63.1977 6.33105C64.2367 6.33105 65.2794 6.68013 66.3183 7.38195L65.4005 9.02442C64.6332 8.49898 63.8696 8.23442 63.1096 8.23442C62.3497 8.23442 61.9679 8.44386 61.9679 8.85907C61.9679 9.09056 62.089 9.27061 62.3276 9.40289C62.5663 9.53517 62.9664 9.6895 63.5282 9.8622C64.0862 10.0386 64.4827 10.1708 64.7177 10.2664C64.9526 10.3582 65.2353 10.5052 65.5621 10.7036C66.1752 11.0748 66.4799 11.6994 66.4799 12.5703V12.5592Z" fill="#E5573F"/>
<path d="M74.0648 11.2367V6.47096H76.5429V15.3117H74.0648V14.1432C73.4517 15.0104 72.6624 15.4403 71.6931 15.4403C70.7239 15.4403 69.9126 15.1353 69.2554 14.529C68.5982 13.9191 68.2715 13.0188 68.2715 11.8246V6.46729H70.7496V11.2808C70.7496 12.6404 71.2489 13.3201 72.2438 13.3201C72.7358 13.3201 73.1617 13.1437 73.5251 12.7873C73.8849 12.4309 74.0685 11.9128 74.0685 11.233L74.0648 11.2367Z" fill="#E5573F"/>
<path d="M83.5221 8.63863C82.7878 8.63863 82.2408 8.89952 81.881 9.41761C81.5212 9.93938 81.3377 10.6265 81.3377 11.479V15.3077H78.8742V6.46703H81.3377V7.63551C81.6571 7.27541 82.0536 6.96676 82.5272 6.7169C83.0044 6.46336 83.489 6.33475 83.981 6.32373L83.9957 8.64231H83.5184L83.5221 8.63863Z" fill="#E5573F"/>
<path d="M93.2767 14.029C92.2818 14.9697 91.1107 15.4437 89.7707 15.4437C88.4306 15.4437 87.3219 15.0285 86.4445 14.2017C85.567 13.375 85.1301 12.2653 85.1301 10.8727C85.1301 9.48008 85.5744 8.37407 86.4665 7.55467C87.3586 6.73159 88.4123 6.32373 89.6275 6.32373C90.8427 6.32373 91.8743 6.69117 92.7224 7.42606C93.5704 8.16095 93.9963 9.16775 93.9963 10.4501V11.7656H87.5605C87.6376 12.2469 87.8873 12.6438 88.3168 12.9488C88.7427 13.2574 89.2273 13.4081 89.7633 13.4081C90.6261 13.4081 91.3383 13.1178 91.8963 12.5372L93.2767 14.0327V14.029ZM90.9124 8.78561C90.5747 8.499 90.1598 8.35937 89.6715 8.35937C89.1832 8.35937 88.739 8.50635 88.3352 8.80398C87.9313 9.09794 87.6964 9.49845 87.6303 10.0018H91.5072C91.4521 9.4764 91.2539 9.07222 90.9161 8.78561H90.9124Z" fill="#E5573F"/>
<path d="M11.5756 0H7.86026C7.17005 0 6.60834 0.56219 6.60834 1.25299V11.2585C6.60834 11.9493 7.17005 12.5115 7.86026 12.5115C8.55046 12.5115 9.11217 11.9493 9.11217 11.2585V2.50597H11.5756C15.078 2.50597 17.927 5.35734 17.927 8.86276C17.927 12.3682 15.078 15.2195 11.5756 15.2195H6.81026C6.30362 13.8931 5.02234 12.9487 3.52078 12.9487C1.57866 12.9487 0 14.5288 0 16.4725C0 18.4163 1.57866 19.9963 3.52078 19.9963C5.02234 19.9963 6.30362 19.052 6.81026 17.7255H11.5756C16.4584 17.7255 20.4308 13.7498 20.4308 8.86276C20.4308 3.97575 16.4584 0 11.5756 0ZM3.52078 17.494C2.95907 17.494 2.50383 17.0384 2.50383 16.4762C2.50383 15.914 2.95907 15.4584 3.52078 15.4584C4.08249 15.4584 4.53773 15.914 4.53773 16.4762C4.53773 17.0384 4.08249 17.494 3.52078 17.494Z" fill="#E5573F"/>
</g>
<defs>
<clipPath id="clip0_7486_547">
<rect width="94" height="20" fill="white"/>
</clipPath>
</defs>
</svg>
