<svg width="162" height="184" viewBox="0 0 162 184" fill="none" xmlns="http://www.w3.org/2000/svg">
<g clip-path="url(#clip0_7401_442)">
<path d="M76.91 123.23V116.14H33.86V123.23C30.22 123.23 27.27 126.18 27.27 129.82V176.82C27.27 180.46 30.22 183.41 33.86 183.41H76.91C80.55 183.41 83.5 180.46 83.5 176.82V129.82C83.5 126.18 80.55 123.23 76.91 123.23Z" fill="#0074BA"/>
<path d="M83.49 132.28H27.27V174.29H83.49V132.28Z" fill="#7B8CD6"/>
<path d="M61.48 138.57H35.68V168.01H61.48V138.57Z" fill="#0074BA"/>
<path d="M33.86 122.43H60.78" stroke="#86D2FF" stroke-width="1.5" stroke-miterlimit="10"/>
<path d="M68.26 122.43H76.91" stroke="#86D2FF" stroke-width="1.5" stroke-miterlimit="10"/>
<path d="M78.94 106.38H31.83V117.63H78.94V106.38Z" fill="#0074BA"/>
<path d="M37.1 106.38V117.63" stroke="#1C2356" stroke-width="1.5" stroke-miterlimit="10"/>
<path d="M43.2 106.38V117.63" stroke="#1C2356" stroke-width="1.5" stroke-miterlimit="10"/>
<path d="M49.29 106.38V117.63" stroke="#1C2356" stroke-width="1.5" stroke-miterlimit="10"/>
<path d="M55.38 106.38V117.63" stroke="#1C2356" stroke-width="1.5" stroke-miterlimit="10"/>
<path d="M61.48 106.38V117.63" stroke="#1C2356" stroke-width="1.5" stroke-miterlimit="10"/>
<path d="M67.57 106.38V117.63" stroke="#1C2356" stroke-width="1.5" stroke-miterlimit="10"/>
<path d="M73.66 106.38V117.63" stroke="#1C2356" stroke-width="1.5" stroke-miterlimit="10"/>
<path d="M17.905 182.719C24.3223 179.861 27.2072 172.341 24.3487 165.924C21.4902 159.507 13.9708 156.622 7.5536 159.481C1.13638 162.339 -1.74855 169.858 1.10992 176.276C3.96839 182.693 11.4878 185.578 17.905 182.719Z" fill="#F66345"/>
<path d="M6.07 160.26L19.1 182.11" stroke="white" stroke-width="1.5" stroke-miterlimit="10"/>
<path d="M41.2258 179.675C45.9664 174.49 45.6067 166.445 40.4223 161.704C35.2379 156.963 27.1921 157.323 22.4514 162.507C17.7108 167.692 18.0705 175.738 23.2549 180.478C28.4393 185.219 36.4851 184.859 41.2258 179.675Z" fill="#FFD88A"/>
<path d="M19.69 167.3L43.87 175.21" stroke="white" stroke-width="1.5" stroke-miterlimit="10"/>
<path d="M22.23 179.459C17.99 174.589 18.11 167.409 22.27 162.689" stroke="black" stroke-width="0.75" stroke-linejoin="round"/>
<path d="M115.98 123.21L132.19 138.45L145.82 125L127.16 107.04" fill="#FFCCA9"/>
<path d="M153.56 114.02C150.35 115.72 145.38 119.32 143.55 119.49C141.77 119.66 139.51 118.84 139.51 118.84L125.8 133.45L135.24 142.69L161.24 114.48C161.24 114.48 158.7 111.3 153.55 114.02H153.56Z" fill="#993D1D"/>
<path d="M159.14 113.5L133.57 141.05" stroke="black" stroke-width="0.5" stroke-linejoin="round"/>
<path d="M144.84 118.32L142.9 124.2" stroke="black" stroke-width="0.5" stroke-linejoin="round"/>
<path d="M146.94 117.54L145.01 123.41" stroke="black" stroke-width="0.5" stroke-linejoin="round"/>
<path d="M149.63 116.11L147.7 121.98" stroke="black" stroke-width="0.5" stroke-linejoin="round"/>
<path d="M138.37 121.63C137.38 122.46 137.39 124.06 139.03 123.59C140.65 123.13 143.49 119.79 143.49 119.79C143.49 119.79 139.79 120.44 138.37 121.64V121.63Z" stroke="black" stroke-width="0.5" stroke-linejoin="round"/>
<path d="M143.48 114.97C142.94 113.96 141.14 113.67 141.02 115.19C140.9 116.69 143.54 119.78 143.54 119.78C143.54 119.78 144.27 116.43 143.48 114.97Z" stroke="black" stroke-width="0.5" stroke-linejoin="round"/>
<path d="M52.33 78.75L48.34 86.01C48.34 86.01 40.29 107.13 57.34 107.13H93.18L121.17 133.84L138.06 117.03L112.29 92.16C108.21 88.22 102.75 86.02 97.08 86.02H69.89" fill="#2CA07F"/>
<path d="M125.81 129.22L99.17 102.95C98.17 101.97 96.83 101.41 95.43 101.41H62.35C57.62 101.41 53.78 97.5702 53.78 92.8402V83.9502" stroke="#935E47" stroke-width="0.75" stroke-miterlimit="10"/>
<path d="M84.85 137.93L92.05 158.99L110.38 153.48L102.29 128.88" fill="#FFCCA9"/>
<path d="M122.36 147.4C118.73 147.4 112.65 148.25 110.96 147.55C109.31 146.86 107.7 145.09 107.7 145.09L88.75 151.59L92.77 164.18L128.95 151.42C128.95 151.42 128.2 147.42 122.37 147.42L122.36 147.4Z" fill="#993D1D"/>
<path d="M127.53 149.55L92.05 161.93" stroke="black" stroke-width="0.5" stroke-linejoin="round"/>
<path d="M112.63 147.119L108.18 151.409" stroke="black" stroke-width="0.5" stroke-linejoin="round"/>
<path d="M114.86 147.409L110.41 151.689" stroke="black" stroke-width="0.5" stroke-linejoin="round"/>
<path d="M117.91 147.409L113.46 151.689" stroke="black" stroke-width="0.5" stroke-linejoin="round"/>
<path d="M105.37 147.02C104.11 147.29 103.37 148.7 105.04 149.06C106.69 149.41 110.76 147.79 110.76 147.79C110.76 147.79 107.18 146.63 105.37 147.02Z" stroke="black" stroke-width="0.5" stroke-linejoin="round"/>
<path d="M113 143.519C113 142.369 111.54 141.269 110.72 142.559C109.91 143.829 110.8 147.789 110.8 147.789C110.8 147.789 113.01 145.169 113 143.519Z" stroke="black" stroke-width="0.5" stroke-linejoin="round"/>
<path d="M31.86 78.75L27.87 86.01C27.87 86.01 19.82 107.13 36.87 107.13H72.71L83.28 150.57L107.6 142.09L96.44 98.07C94.64 90.98 88.26 86.01 80.94 86.01H66.03" fill="#2CA07F"/>
<path d="M34.94 83.7197L34.03 94.5997C33.8 97.3997 36.01 99.8097 38.82 99.8097H75.43C76.91 99.8097 78.2 100.81 78.57 102.24L90.6 148.03" stroke="#935E47" stroke-width="0.75" stroke-miterlimit="10"/>
<path d="M100.38 113.59L96.44 98.0698C94.64 90.9798 88.26 86.0098 80.94 86.0098H66.03" stroke="black" stroke-width="0.75" stroke-linejoin="round"/>
<path d="M72.71 107.13H76.92" stroke="black" stroke-width="0.75" stroke-linejoin="round"/>
<path d="M63.53 7.82033C63.19 7.53033 62.82 7.26033 62.45 7.04033C59.9 5.52033 56.58 6.73033 54.39 8.38033C53 9.42033 51.88 10.8703 51.34 12.5203C50.29 15.7403 51.55 19.3503 53.65 22.0103C55.09 23.8403 56.96 25.3803 59.15 26.1803C61.34 26.9803 63.86 27.0003 65.95 25.9703C68.04 24.9403 69.62 22.8103 69.74 20.4803C69.82 18.8303 69.21 17.2203 68.54 15.7103C67.39 13.1103 65.85 9.79033 63.54 7.82033H63.53Z" fill="#FFCCA9"/>
<path d="M50.12 22.1008L46.82 31.1608L40.04 32.5708C40.04 32.5708 46.16 43.6608 56.32 43.6608C66.48 43.6608 66.47 31.8508 66.47 31.8508C66.47 31.8508 61.37 31.3808 61.37 31.0908C61.37 30.8008 63.59 22.0908 63.59 22.0908" fill="#FFCCA9"/>
<path d="M54.53 17.4402C53.8 20.4802 49.48 23.8402 49.48 23.8402C49.48 23.8402 48.48 23.4202 47.19 22.4502C45.95 21.5202 45.11 20.6202 44.43 19.2802C43.38 17.2102 43.55 14.1202 44.16 11.9002C44.86 9.36016 46.14 7.03016 48.21 5.42016C51.05 3.20016 54.41 2.49016 58.29 2.81016C61.82 3.11016 65.27 5.23016 66.6 8.64016C67.01 9.70016 67.1 10.9202 66.66 11.9702C66.09 11.0302 65.52 10.0802 64.76 9.30016C62.26 6.73016 57.49 7.82016 56.26 11.1702C55.93 12.0702 55.72 13.0102 55.49 13.9402C55.2 15.1102 54.82 16.2602 54.54 17.4402H54.53Z" fill="#993D1D"/>
<path d="M45.75 9.73035C45 10.0403 44.24 10.3404 43.43 10.3904C41.86 10.4804 40.34 9.48035 39.61 8.09035C38.87 6.70035 38.86 5.00035 39.37 3.51035C39.73 2.44035 40.37 1.45035 41.28 0.80035C42.32 0.0603499 43.69 -0.17965 44.92 0.16035C47.04 0.75035 48.58 2.41035 48.83 4.65035C49 6.22035 48.38 7.89035 47.13 8.86035" fill="#993D1D"/>
<path d="M54.71 18.27C53.97 17.46 52.68 17.14 51.72 17.77C49.54 19.2 50.76 21.92 52.14 23.24C53.52 24.56 55.69 24.51 55.97 22.77" fill="#FFCCA9"/>
<path d="M51.31 22.2197C51.31 22.2197 53.99 26.0397 55.83 23.2397" stroke="black" stroke-width="0.5" stroke-linejoin="round"/>
<path d="M52.06 19.1299C52.66 19.1099 53.26 19.3899 53.68 19.8199C54.1 20.2499 54.35 20.8299 54.46 21.4299C54.55 21.9399 54.51 22.5199 54.14 22.8799" stroke="black" stroke-width="0.5" stroke-linejoin="round"/>
<path d="M53.44 19.6797C53.29 19.6797 53.15 19.7397 53.03 19.8197C52.75 20.0197 52.56 20.3397 52.51 20.6697C52.46 21.0097 52.53 21.3597 52.69 21.6697" stroke="black" stroke-width="0.5" stroke-linejoin="round"/>
<path d="M57.39 25.2305C57.39 25.2305 58.81 26.9005 62.41 26.7505" stroke="black" stroke-width="0.5" stroke-linejoin="round"/>
<path d="M60.52 16.1408C60.72 16.5008 60.66 16.9208 60.37 17.0808C60.09 17.2408 59.69 17.0808 59.49 16.7108C59.29 16.3508 59.35 15.9308 59.64 15.7708C59.92 15.6108 60.32 15.7708 60.52 16.1408Z" fill="black"/>
<path d="M66.34 13.8205C66.54 14.1805 66.48 14.6005 66.19 14.7605C65.91 14.9205 65.51 14.7605 65.31 14.3905C65.11 14.0305 65.17 13.6105 65.46 13.4505C65.74 13.2905 66.14 13.4505 66.34 13.8205Z" fill="black"/>
<path d="M64.71 15.4902C65.07 15.9902 65.47 16.4602 65.85 16.9402C66.14 17.3102 66.81 17.9702 66.7 18.4802C66.6 18.9302 65.63 19.1202 65.33 18.8702" stroke="black" stroke-width="0.5" stroke-linejoin="round"/>
<path d="M63.13 20.0107C63.11 21.2307 65.28 22.5407 66.28 20.6407" stroke="#421B14" stroke-width="0.5" stroke-linejoin="round"/>
<path d="M57.61 14.3506C57.73 14.1306 57.83 13.8906 57.96 13.6706C57.99 13.6206 58.03 13.5706 58.06 13.5206C58.03 13.5606 58.09 13.4706 58.06 13.5206C58.07 13.5106 58.08 13.4906 58.09 13.4806C58.11 13.4606 58.13 13.4306 58.15 13.4106C58.17 13.3906 58.19 13.3706 58.22 13.3506C58.24 13.3406 58.28 13.3106 58.22 13.3506C58.23 13.3506 58.24 13.3306 58.26 13.3206C58.32 13.2806 58.38 13.2506 58.44 13.2206L58.38 13.2506C58.5 13.2006 58.62 13.1706 58.75 13.1506H58.68C58.8 13.1506 58.93 13.1406 59.05 13.1406C59.18 13.1406 59.31 13.0206 59.3 12.8906C59.29 12.7606 59.19 12.6406 59.05 12.6406C58.7 12.6406 58.32 12.6806 58.02 12.8806C57.74 13.0606 57.56 13.3406 57.41 13.6306C57.33 13.7806 57.26 13.9306 57.18 14.0806C57.12 14.1906 57.15 14.3606 57.27 14.4206C57.39 14.4806 57.54 14.4506 57.61 14.3306V14.3506Z" fill="black"/>
<path d="M63.33 11.5401C63.34 11.4901 63.36 11.4401 63.38 11.3901C63.38 11.3701 63.4 11.3401 63.41 11.3201C63.41 11.3201 63.43 11.2601 63.41 11.3101C63.43 11.2601 63.46 11.2101 63.48 11.1701C63.49 11.1501 63.5 11.1301 63.52 11.1101C63.52 11.1001 63.53 11.0901 63.54 11.0801C63.54 11.0801 63.58 11.0301 63.54 11.0701C63.54 11.0701 63.56 11.0501 63.57 11.0401C63.59 11.0201 63.61 11.0001 63.62 10.9801C63.63 10.9601 63.66 10.9401 63.68 10.9301C63.67 10.9301 63.63 10.9701 63.67 10.9401C63.68 10.9401 63.69 10.9301 63.7 10.9201C63.72 10.9101 63.74 10.9001 63.76 10.8801C63.77 10.8801 63.79 10.8701 63.8 10.8601C63.77 10.8701 63.76 10.8801 63.77 10.8701C63.77 10.8701 63.78 10.8701 63.79 10.8701C63.85 10.8501 63.9 10.8401 63.96 10.8301H63.89C63.99 10.8301 64.09 10.8301 64.18 10.8401H64.11C64.33 10.8601 64.55 10.9401 64.76 11.0201C64.82 11.0401 64.9 11.0201 64.95 10.9901C65 10.9601 65.05 10.9001 65.06 10.8401C65.09 10.7001 65.02 10.5801 64.89 10.5301C64.57 10.4101 64.23 10.2901 63.88 10.3301C63.68 10.3501 63.5 10.4201 63.34 10.5401C63.21 10.6401 63.1 10.7701 63.02 10.9101C62.93 11.0701 62.87 11.2401 62.82 11.4101C62.78 11.5401 62.86 11.6901 62.99 11.7201C63.12 11.7501 63.26 11.6801 63.3 11.5501L63.33 11.5401Z" fill="black"/>
<path d="M97.33 47.5006C97.33 47.5006 100.94 42.7106 101.98 41.3106C102.77 40.2506 103.56 39.1806 104.53 38.2906C105.51 37.4006 106.69 36.6906 107.99 36.4806C109.29 36.2706 110.73 36.6106 111.64 37.5706C112 37.9406 112.27 38.3906 112.62 38.7706C113.29 39.4806 114.27 40.0006 114.52 40.9406C114.63 41.3706 114.58 41.8506 114.81 42.2206C115.01 42.5306 115.37 42.7006 115.63 42.9606C116.01 43.3406 116.14 43.9106 116.09 44.4506C116.04 44.9906 115.85 45.4906 115.64 45.9906C114.86 47.8406 113.94 49.6306 112.87 51.3406C111.94 52.8306 108.9 54.5806 107.31 55.4506C105.29 56.5506 104.71 57.4406 102.46 57.8006" fill="#FFCCA9"/>
<path d="M109.47 23.9601C110.58 27.4801 108.97 31.1201 105.89 32.0901C102.81 33.0601 99.41 31.0001 98.3 27.4801C97.19 23.9601 98.8 20.3201 101.88 19.3501C104.96 18.3801 108.36 20.4401 109.47 23.9601Z" stroke="black" stroke-linejoin="round"/>
<path d="M105.89 32.0801L109.36 43.1101" stroke="black" stroke-width="2" stroke-linejoin="round"/>
<path d="M102 22.5005C102 22.5005 105.39 21.5005 106.87 24.6005" stroke="white" stroke-width="1.5" stroke-linejoin="round"/>
<path d="M114.94 46.4404C114.94 46.4404 111.84 48.0204 111.48 47.8304C111.13 47.6404 110.8 46.4404 110.8 46.4404" fill="#FFCCA9"/>
<path d="M114.94 46.4404C114.94 46.4404 111.84 48.0204 111.48 47.8304C111.13 47.6404 110.8 46.4404 110.8 46.4404" stroke="black" stroke-width="0.75" stroke-linejoin="round"/>
<path d="M114.52 43.2803C114.52 43.2803 111.21 46.4003 110.8 46.4403C110.39 46.4803 109.42 45.3503 109.42 45.3503" fill="#FFCCA9"/>
<path d="M114.52 43.2803C114.52 43.2803 111.21 46.4003 110.8 46.4403C110.39 46.4803 109.42 45.3503 109.42 45.3503" stroke="black" stroke-width="0.75" stroke-linejoin="round"/>
<path d="M109.88 37.3701C109.88 37.3701 107.45 44.1601 107.84 44.5801C108.23 45.0001 109.42 45.1601 109.42 45.1601L112.95 39.9801" fill="#FFCCA9"/>
<path d="M109.88 37.3701C109.88 37.3701 107.45 44.1601 107.84 44.5801C108.23 45.0001 109.42 45.1601 109.42 45.1601L112.95 39.9801" stroke="black" stroke-width="0.75" stroke-linejoin="round"/>
<path d="M85.01 51.5201L86.92 54.9901L99.38 44.8301L107.89 54.3601C107.89 54.3601 93.09 70.6801 87.36 73.5701C80.93 76.8201 75.39 70.2901 73.33 66.1501C71.27 62.0101 65.63 52.7001 65.63 52.7001" fill="#FFCCA9"/>
<path d="M104.66 39.7304C104.66 39.7304 110.3 38.3704 110.99 39.7304C111.46 40.6504 105.89 43.2804 105.78 43.2804C105.78 43.2804 106.63 49.4404 105.25 51.6204" fill="#FFCCA9"/>
<path d="M104.66 39.7304C104.66 39.7304 110.3 38.3704 110.99 39.7304C111.46 40.6504 105.89 43.2804 105.78 43.2804C105.78 43.2804 106.63 49.4404 105.25 51.6204" stroke="black" stroke-width="0.75" stroke-linejoin="round"/>
<path d="M64.68 31.6699C64.68 31.6699 71 32.3999 72.71 33.1999C77.7 35.5099 80.3 39.3699 83.36 45.1599C86.42 50.9499 87.26 52.7899 87.26 52.7899L65.15 58.6499L60.26 48.2499" fill="#2CA07F"/>
<path d="M85.47 49.2197L63.38 54.8997" stroke="black" stroke-width="0.75" stroke-linejoin="round"/>
<path d="M86.91 54.9902L81.01 59.3202" stroke="black" stroke-width="0.75" stroke-linejoin="round"/>
<path d="M45.28 31.1104L56.57 42.1003L64.68 31.6704L70.08 32.8804L72.71 49.2704L75.09 86.0104H26.44L33.97 43.6703L38.78 32.4704L45.28 31.1104Z" fill="#2CA07F"/>
<path d="M26.44 86.0098H75.09" stroke="black" stroke-width="0.75" stroke-linejoin="round"/>
<path d="M73.16 56.5299L72.73 43.6699" stroke="black" stroke-width="0.75" stroke-linejoin="round"/>
<path d="M71.42 74.2109H46.13L57.49 42.9609H82.79L71.42 74.2109Z" fill="white"/>
<path d="M76.07 43.7112H65.16L65.93 42.2012H76.84L76.07 43.7112Z" fill="#4B72AA"/>
<path d="M25.69 50.7109C25.69 50.7109 21.74 64.3709 21 67.6509C19.75 73.1609 21.91 77.4909 31.87 77.4909C50.19 77.4909 59.72 77.4909 59.72 77.4909L63.02 63.4009L41.1 63.3409L44.14 53.1109" fill="#FFCCA9"/>
<path d="M45.28 31.1108C45.28 31.1108 39.1 30.7308 35.97 32.0608C31.75 33.8508 28.41 36.8408 25.62 43.6708C22.83 50.5008 19.32 61.0208 19.32 61.0208H44.56L48.63 48.5108" fill="#2CA07F"/>
<path d="M41.09 63.3408H35.53" stroke="black" stroke-width="0.75" stroke-linejoin="round"/>
<path d="M21.06 55.9111H46.13" stroke="black" stroke-width="0.75" stroke-linejoin="round"/>
<path d="M48.76 48.0908L44.55 61.0108H41.78" stroke="black" stroke-width="0.75" stroke-linejoin="round"/>
<path d="M59.97 63.4012C59.97 63.4012 72.88 63.3412 72.88 63.9112C72.88 64.8012 68.22 66.3812 68.22 67.0212C68.22 67.6612 73.72 67.1812 73.72 67.1812L75.24 64.2712C75.24 64.2712 76.35 65.8012 75.91 67.0512C75.47 68.2912 75.17 68.8712 75.17 68.8712L73.53 74.4612C72.97 76.1112 71.3 77.0812 69.4 77.2912C67.51 77.5012 59.47 77.5012 59.47 77.5012" fill="#FFCCA9"/>
<path d="M75.07 69.1104L68.28 70.0603" stroke="black" stroke-width="0.5" stroke-linejoin="round"/>
<path d="M74.13 71.9209L67.33 72.8609" stroke="black" stroke-width="0.5" stroke-linejoin="round"/>
<path d="M73.44 74.7109L66.08 75.6209" stroke="black" stroke-width="0.5" stroke-linejoin="round"/>
<path d="M68.21 67.0205L65.19 65.2305" stroke="black" stroke-width="0.5" stroke-linejoin="round"/>
</g>
<defs>
<clipPath id="clip0_7401_442">
<rect width="161.25" height="183.82" fill="white"/>
</clipPath>
</defs>
</svg>
