<svg width="25" height="24" viewBox="0 0 25 24" fill="none" xmlns="http://www.w3.org/2000/svg">
<path d="M10.5926 2.04826C11.1806 0.183626 13.8194 0.183622 14.4074 2.04826L15.7635 6.34823C16.026 7.18067 16.798 7.74671 17.6709 7.74671H22.1832C24.1061 7.74671 24.9211 10.1955 23.3817 11.3478L19.6294 14.1566C18.9493 14.6657 18.665 15.549 18.9206 16.3593L20.3294 20.8266C20.9138 22.6798 18.7791 24.1937 17.2235 23.0292L13.6985 20.3906C12.988 19.8587 12.012 19.8587 11.3015 20.3906L7.77653 23.0292C6.22093 24.1937 4.08618 22.6798 4.67061 20.8266L6.07944 16.3593C6.33496 15.549 6.0507 14.6657 5.37056 14.1566L1.61829 11.3478C0.0788555 10.1955 0.893849 7.74671 2.81681 7.74671H7.32915C8.20199 7.74671 8.97403 7.18067 9.23655 6.34823L10.5926 2.04826Z" fill="#F3BC55"/>
</svg>
