<svg width="37" height="36" viewBox="0 0 37 36" fill="none" xmlns="http://www.w3.org/2000/svg">
<path d="M20.8115 0H14.1317C12.8908 0 11.881 1.01194 11.881 2.25537V20.2653C11.881 21.5087 12.8908 22.5207 14.1317 22.5207C15.3726 22.5207 16.3825 21.5087 16.3825 20.2653V4.51075H20.8115C27.1084 4.51075 32.2304 9.64321 32.2304 15.953C32.2304 22.2627 27.1084 27.3952 20.8115 27.3952H12.244C11.3331 25.0075 9.02953 23.3077 6.32991 23.3077C2.83823 23.3077 0 26.1518 0 29.6506C0 33.1494 2.83823 35.9934 6.32991 35.9934C9.02953 35.9934 11.3331 34.2936 12.244 31.9059H20.8115C29.5902 31.9059 36.732 24.7496 36.732 15.953C36.732 7.15635 29.5902 0 20.8115 0ZM6.32991 31.4893C5.32003 31.4893 4.50156 30.6691 4.50156 29.6572C4.50156 28.6452 5.32003 27.8251 6.32991 27.8251C7.33979 27.8251 8.15826 28.6452 8.15826 29.6572C8.15826 30.6691 7.33979 31.4893 6.32991 31.4893Z" fill="#E5573F"/>
</svg>
