<svg width="169" height="36" viewBox="0 0 169 36" fill="none" xmlns="http://www.w3.org/2000/svg">
<g clip-path="url(#clip0_7388_1081)">
<path d="M64.7314 9.59038C66.6984 11.396 67.6818 13.9027 67.6818 17.1171C67.6818 20.3315 66.7248 22.8779 64.804 24.7497C62.8833 26.6214 59.9592 27.5606 56.0253 27.5606H48.9693V6.88525H56.2629C59.946 6.88525 62.7645 7.78476 64.738 9.59038H64.7314ZM61.3519 21.8792C62.4806 20.8143 63.0483 19.2667 63.0483 17.2362C63.0483 15.2057 62.4806 13.6448 61.3519 12.5468C60.2232 11.4489 58.4807 10.9066 56.1441 10.9066H53.5765V23.4798H56.5005C58.6061 23.4798 60.2232 22.944 61.3585 21.8792H61.3519Z" fill="#E5573F"/>
<path d="M87.1072 19.604C87.1072 21.9123 86.3086 23.8568 84.7178 25.4309C83.1271 27.0117 81.1205 27.7988 78.7113 27.7988C76.3021 27.7988 74.2956 27.0117 72.7049 25.4309C71.1075 23.8502 70.3155 21.9123 70.3155 19.604C70.3155 17.2957 71.1141 15.3512 72.7049 13.7639C74.2956 12.1765 76.3021 11.3828 78.7113 11.3828C81.1205 11.3828 83.1271 12.1765 84.7178 13.7639C86.3152 15.3512 87.1072 17.2957 87.1072 19.604ZM74.7642 19.604C74.7642 20.907 75.1338 21.9652 75.8731 22.7853C76.6124 23.6055 77.5562 24.0156 78.7047 24.0156C79.8532 24.0156 80.8037 23.6055 81.5364 22.7853C82.2756 21.9652 82.6453 20.907 82.6453 19.604C82.6453 18.3011 82.2756 17.2362 81.5364 16.4095C80.7971 15.5827 79.8532 15.166 78.7047 15.166C77.5562 15.166 76.6058 15.5827 75.8731 16.4095C75.1338 17.2362 74.7642 18.3011 74.7642 19.604Z" fill="#E5573F"/>
<path d="M97.9981 23.8634C99.4766 23.8634 100.803 23.1227 101.985 21.6477L104.612 24.6042C102.566 26.7339 100.348 27.7988 97.9717 27.7988C95.5955 27.7988 93.5757 27.0448 91.9322 25.5368C90.2887 24.0288 89.4636 22.0578 89.4636 19.6239C89.4636 17.1899 90.2953 15.2057 91.9586 13.6779C93.6219 12.15 95.5955 11.3828 97.8793 11.3828C99.0212 11.3828 100.176 11.6209 101.345 12.0905C102.513 12.5667 103.543 13.2612 104.427 14.1938L102.123 17.2097C101.609 16.6013 100.988 16.1251 100.249 15.7877C99.5096 15.4504 98.7769 15.2851 98.0509 15.2851C96.8892 15.2851 95.8925 15.6621 95.0542 16.4227C94.216 17.1833 93.8001 18.2349 93.8001 19.5908C93.8001 20.9467 94.216 21.9917 95.0542 22.7391C95.8925 23.4864 96.8694 23.8634 97.9915 23.8634H97.9981Z" fill="#E5573F"/>
<path d="M119.522 22.6067C119.522 24.1742 118.948 25.4309 117.793 26.3767C116.638 27.3225 115.179 27.7987 113.41 27.7987C112.229 27.7987 111.001 27.5871 109.721 27.1638C108.44 26.7405 107.292 26.1121 106.269 25.2854L108.216 22.5075C109.866 23.7906 111.628 24.4322 113.503 24.4322C114.07 24.4322 114.526 24.3198 114.862 24.0949C115.199 23.87 115.364 23.5658 115.364 23.1954C115.364 22.825 115.133 22.4744 114.671 22.157C114.209 21.8395 113.536 21.5485 112.664 21.2707C111.787 20.9929 111.12 20.7614 110.658 20.563C110.196 20.3646 109.668 20.0802 109.08 19.7032C107.879 18.9558 107.278 17.8446 107.278 16.3763C107.278 14.908 107.866 13.7109 109.047 12.7849C110.229 11.859 111.754 11.396 113.622 11.396C115.489 11.396 117.364 12.0243 119.232 13.2876L117.582 16.2441C116.202 15.2983 114.829 14.822 113.463 14.822C112.097 14.822 111.41 15.199 111.41 15.9464C111.41 16.3631 111.628 16.6872 112.057 16.9253C112.486 17.1634 113.206 17.4412 114.216 17.752C115.219 18.0695 115.932 18.3076 116.354 18.4796C116.777 18.6449 117.285 18.9095 117.872 19.2667C118.975 19.9347 119.522 21.059 119.522 22.6266V22.6067Z" fill="#E5573F"/>
<path d="M133.159 20.2256V11.6472H137.614V27.5605H133.159V25.4573C132.057 27.0182 130.638 27.792 128.895 27.792C127.153 27.792 125.694 27.243 124.512 26.1517C123.331 25.0538 122.743 23.4334 122.743 21.2838V11.6406H127.199V20.305C127.199 22.7521 128.097 23.9757 129.885 23.9757C130.77 23.9757 131.535 23.6583 132.189 23.0167C132.836 22.3751 133.166 21.4426 133.166 20.219L133.159 20.2256Z" fill="#E5573F"/>
<path d="M150.162 15.5496C148.842 15.5496 147.859 16.0192 147.212 16.9518C146.565 17.891 146.235 19.1278 146.235 20.6623V27.554H141.806V11.6408H146.235V13.744C146.809 13.0958 147.522 12.5403 148.373 12.0905C149.231 11.6341 150.103 11.4027 150.987 11.3828L151.014 15.5562H150.155L150.162 15.5496Z" fill="#E5573F"/>
<path d="M167.7 25.2524C165.911 26.9456 163.805 27.7988 161.396 27.7988C158.987 27.7988 156.994 27.0514 155.416 25.5632C153.839 24.0751 153.053 22.0777 153.053 19.5709C153.053 17.0642 153.852 15.0734 155.456 13.5985C157.06 12.117 158.954 11.3828 161.139 11.3828C163.324 11.3828 165.178 12.0442 166.703 13.367C168.228 14.6898 168.993 16.502 168.993 18.8103V21.1781H157.423C157.561 22.0446 158.01 22.7589 158.782 23.3079C159.548 23.8634 160.419 24.1346 161.383 24.1346C162.934 24.1346 164.215 23.6121 165.218 22.5671L167.7 25.259V25.2524ZM163.449 15.8142C162.842 15.2983 162.096 15.047 161.218 15.047C160.34 15.047 159.541 15.3115 158.815 15.8473C158.089 16.3764 157.667 17.0973 157.548 18.0034H164.518C164.419 17.0576 164.063 16.3301 163.456 15.8142H163.449Z" fill="#E5573F"/>
<path d="M20.8115 0H14.1317C12.8908 0 11.881 1.01194 11.881 2.25537V20.2653C11.881 21.5087 12.8908 22.5207 14.1317 22.5207C15.3726 22.5207 16.3825 21.5087 16.3825 20.2653V4.51075H20.8115C27.1084 4.51075 32.2304 9.64321 32.2304 15.953C32.2304 22.2627 27.1084 27.3952 20.8115 27.3952H12.244C11.3331 25.0075 9.02953 23.3077 6.32991 23.3077C2.83823 23.3077 0 26.1518 0 29.6506C0 33.1494 2.83823 35.9934 6.32991 35.9934C9.02953 35.9934 11.3331 34.2936 12.244 31.9059H20.8115C29.5902 31.9059 36.732 24.7496 36.732 15.953C36.732 7.15635 29.5902 0 20.8115 0ZM6.32991 31.4893C5.32003 31.4893 4.50156 30.6691 4.50156 29.6572C4.50156 28.6452 5.32003 27.8251 6.32991 27.8251C7.33979 27.8251 8.15826 28.6452 8.15826 29.6572C8.15826 30.6691 7.33979 31.4893 6.32991 31.4893Z" fill="#E5573F"/>
</g>
<defs>
<clipPath id="clip0_7388_1081">
<rect width="169" height="36" fill="white"/>
</clipPath>
</defs>
</svg>
