<svg width="39" height="45" viewBox="0 0 39 45" fill="none" xmlns="http://www.w3.org/2000/svg">
<path fill-rule="evenodd" clip-rule="evenodd" d="M20.6088 44.7216C24.7398 42.5451 39 34.0035 39 19.8084C39 8.86853 30.2696 0 19.5 0C8.73045 0 0 8.86853 0 19.8084C0 34.0035 14.2602 42.5451 18.3912 44.7216C19.0956 45.0928 19.9044 45.0928 20.6088 44.7216Z" fill="#0074BA"/>
<path d="M12.7278 23V18.812L12.8118 19.4L9.41581 14.6H11.2398L13.8318 18.32L13.2678 18.284L15.6078 14.6H17.3598L14.1078 19.532L14.2878 18.716V23H12.7278ZM19.8419 23.12C19.2099 23.12 18.6459 22.98 18.1499 22.7C17.6539 22.412 17.2619 22.02 16.9739 21.524C16.6859 21.028 16.5419 20.464 16.5419 19.832C16.5419 19.2 16.6859 18.636 16.9739 18.14C17.2619 17.644 17.6539 17.256 18.1499 16.976C18.6459 16.688 19.2099 16.544 19.8419 16.544C20.4659 16.544 21.0259 16.688 21.5219 16.976C22.0179 17.256 22.4059 17.644 22.6859 18.14C22.9739 18.636 23.1179 19.2 23.1179 19.832C23.1179 20.464 22.9739 21.028 22.6859 21.524C22.4059 22.02 22.0179 22.412 21.5219 22.7C21.0259 22.98 20.4659 23.12 19.8419 23.12ZM19.8419 21.812C20.1859 21.812 20.4899 21.724 20.7539 21.548C21.0259 21.372 21.2379 21.136 21.3899 20.84C21.5499 20.544 21.6259 20.208 21.6179 19.832C21.6259 19.448 21.5499 19.108 21.3899 18.812C21.2379 18.516 21.0259 18.284 20.7539 18.116C20.4899 17.94 20.1859 17.852 19.8419 17.852C19.4979 17.852 19.1859 17.94 18.9059 18.116C18.6339 18.284 18.4219 18.52 18.2699 18.824C18.1179 19.12 18.0419 19.456 18.0419 19.832C18.0419 20.208 18.1179 20.544 18.2699 20.84C18.4219 21.136 18.6339 21.372 18.9059 21.548C19.1859 21.724 19.4979 21.812 19.8419 21.812ZM26.2742 23.12C25.8182 23.12 25.4222 23.02 25.0862 22.82C24.7502 22.612 24.4942 22.32 24.3182 21.944C24.1422 21.56 24.0542 21.104 24.0542 20.576V16.676H25.5302V20.264C25.5302 20.6 25.5822 20.888 25.6862 21.128C25.7902 21.36 25.9422 21.54 26.1422 21.668C26.3422 21.796 26.5822 21.86 26.8622 21.86C27.0702 21.86 27.2582 21.828 27.4262 21.764C27.6022 21.692 27.7542 21.596 27.8822 21.476C28.0102 21.348 28.1102 21.2 28.1822 21.032C28.2542 20.856 28.2902 20.668 28.2902 20.468V16.676H29.7662V23H28.3262L28.3022 21.68L28.5662 21.536C28.4702 21.84 28.3062 22.112 28.0742 22.352C27.8502 22.584 27.5822 22.772 27.2702 22.916C26.9582 23.052 26.6262 23.12 26.2742 23.12Z" fill="white"/>
</svg>
